<?xml version="1.0" standalone="no"?>
<!DOCTYPE svg PUBLIC "-//W3C//DTD SVG 1.1//EN" "http://www.w3.org/Graphics/SVG/1.1/DTD/svg11.dtd" >
<svg xmlns="http://www.w3.org/2000/svg">
<metadata>
This is a custom SVG webfont generated by Font Squirrel.
Designer    : Robert Slimbach
Foundry URL : httpwwwadobecomtype
</metadata>
<defs>
<font id="webfontDFXSTLIT" horiz-adv-x="492" >
<font-face units-per-em="1000" ascent="780" descent="-220" />
<missing-glyph horiz-adv-x="191" />
<glyph unicode=" "  horiz-adv-x="191" />
<glyph unicode="&#x09;" horiz-adv-x="191" />
<glyph unicode="&#xa0;" horiz-adv-x="191" />
<glyph unicode="!" horiz-adv-x="234" d="M171 607h1q14 0 19 -4.5t5 -23.5q0 -44 -13.5 -169.5t-20.5 -166.5q-3 -18 -24 -25q-51 -11 -54 -11q-7 54 -21.5 196.5t-14.5 175.5q3 7 50 17.5t73 10.5zM121 144h1q31 0 50 -22t19 -54q0 -36 -21 -57.5t-56 -21.5q-28 0 -50 20t-22 56q0 34 20.5 56.5t58.5 22.5z" />
<glyph unicode="&#x22;" horiz-adv-x="344" d="M122 685h1q20 0 26 -11q5 -9 5 -29q0 -7 -1 -15q-2 -35 -12.5 -80.5t-21.5 -70.5q-9 -9 -29.5 -18.5t-40.5 -10.5q-5 148 -18 212q14 8 43 15.5t48 7.5zM283 685h1q22 0 28 -12q3 -8 3 -23q0 -9 -1 -20q-2 -35 -12.5 -80.5t-21.5 -70.5q-9 -9 -29.5 -18.5t-40.5 -10.5 q-5 147 -18 212q14 8 43 15.5t48 7.5z" />
<glyph unicode="#" d="M83 478h74l26 111q39 12 65 12q11 0 7 -16l-23 -107h80l25 111q33 12 64 12q7 0 7 -16l-23 -107h47q18 0 18 -15q0 -4 -1 -8q-10 -48 -18 -65h-63l-24 -108h57q18 0 18 -15q0 -3 -1 -6q-8 -47 -18 -67h-76l-27 -137q-4 -4 -24.5 -8.5t-35.5 -4.5q-16 0 -12 16l29 134h-81 l-29 -135q-4 -15 -16 -15q-4 0 -59 19l32 131l-56 1q-12 0 -15 4q-2 2 -2 8q0 4 1 9q7 39 17 66h71l24 108h-59q-13 0 -16.5 4t-1.5 18q8 43 19 66zM294 390h-79l-24 -108h79z" />
<glyph unicode="$" d="M324 657l-12 -82q27 -2 60.5 -13.5t54.5 -29.5q0 -20 -13.5 -42.5t-34.5 -23.5q-60 31 -109 31q-42 0 -57.5 -17.5t-15.5 -36.5q0 -25 24 -46.5t92 -58.5q37 -20 54.5 -31t40.5 -31.5t32.5 -45t9.5 -57.5q0 -41 -15 -72.5t-40.5 -50.5t-53 -30t-57.5 -15l-8 -75 q-2 -16 -26 -19q-36 -4 -58 -4h-8l10 93q-76 6 -128 49q-10 11 -10 35v7q2 30 16 41q7 10 16 3q25 -20 69 -35.5t81 -15.5q42 0 61.5 17t19.5 42q0 28 -25 48t-95 58q-67 36 -97.5 73.5t-30.5 91.5q0 51 27.5 88t60.5 52.5t65 18.5l8 54q3 20 21 24q29 6 71 6z" />
<glyph unicode="%" horiz-adv-x="709" d="M567 584l-364 -599q-8 -14 -18 -14q-4 0 -9 3q-26 17 -35 36l367 608q3 6 10 6q5 0 12 -3q30 -14 37 -37zM178 602h1q64 0 102 -42.5t38 -122.5q0 -67 -37.5 -116.5t-104.5 -49.5q-66 0 -106.5 41t-40.5 123q0 61 37.5 114t110.5 53zM173 542h-1q-45 0 -45 -105 q0 -106 49 -106q46 0 46 103q0 108 -49 108zM538 319h1q65 0 102.5 -42t37.5 -123q0 -67 -37.5 -116.5t-103.5 -49.5q-68 0 -108.5 41t-40.5 123q0 61 38 114t111 53zM531 258h-1q-20 0 -32 -27t-12 -77q0 -106 50 -106q46 0 46 103q0 107 -51 107z" />
<glyph unicode="&#x26;" horiz-adv-x="673" d="M647 9v-3q-54 -18 -127 -18q-24 0 -44 18q-10 10 -33.5 30t-28.5 25q-74 -73 -177 -73q-90 0 -144 47t-54 128q0 30 10.5 55t34.5 46t34.5 28t39.5 25q-59 59 -59 137q0 66 48 113t124 47q71 0 116.5 -37t45.5 -107q0 -13 -2 -24.5t-7 -22.5l-10 -19q-3 -7 -13.5 -17 t-14.5 -15t-18 -14.5t-17 -12t-18.5 -12.5t-16.5 -11l64 -58l53 -48q38 86 80 162q18 34 44 34q50 0 83 -24v-3q-37 -39 -146 -232q78 -69 153 -144zM214 473v-1q0 -50 57 -104q53 37 53 95q0 38 -16 58q-16 19 -40 19q-23 0 -38.5 -16.5t-15.5 -50.5zM279 84h1q51 0 79 30 l-75 74q-64 62 -81 81q-11 -7 -22.5 -29.5t-11.5 -49.5q0 -41 28.5 -73.5t81.5 -32.5z" />
<glyph unicode="'" horiz-adv-x="183" d="M122 685h1q20 0 26 -11q5 -9 5 -29q0 -7 -1 -15q-2 -35 -12.5 -81t-21.5 -71q-27 -26 -70 -28q-5 148 -18 212q14 8 43 15.5t48 7.5z" />
<glyph unicode="(" horiz-adv-x="343" d="M49 244v1q0 147 55 265t153 190q19 -6 31 -30q9 -16 9 -30q0 -6 -1 -11q-69 -69 -107 -166.5t-38 -205.5q0 -111 39 -210.5t106 -159.5q-2 -31 -20 -53q-17 -18 -28 -18h-3q-92 50 -144 178t-52 250z" />
<glyph unicode=")" horiz-adv-x="343" d="M302 274v-1q0 -140 -52 -260t-153 -197q-18 7 -32 28q-11 16 -11 33q0 5 1 10q69 69 107 166.5t38 205.5q0 111 -39 210.5t-106 160.5q2 31 20 52q16 18 27 18h3q78 -42 137.5 -163.5t59.5 -262.5z" />
<glyph unicode="*" horiz-adv-x="382" d="M177 530l-8 132q16 6 36 6q12 0 25 -2q27 -4 27 -20q0 -3 -1 -6l-38 -109l98 76q28 -22 34 -62q1 -5 1 -10q0 -19 -18 -22l-99 -19l99 -44q19 -8 19 -22q0 -7 -4 -15q-7 -16 -21.5 -31t-26.5 -21l-91 97l12 -127q-13 -4 -31 -4t-41 4q-19 3 -19 19q0 7 4 17l36 95 l-101 -80q-13 6 -23.5 25t-13.5 38q-1 5 -1 9q0 12 10 17l109 28l-94 41q-18 8 -18 22q0 6 3 13q16 31 51 53z" />
<glyph unicode="+" horiz-adv-x="576" d="M242 210h-180q1 49 7.5 67t24.5 18h148v91q0 55 -3 82l71 5h4q12 0 15 -5q4 -7 4 -30v-143h180v-12q0 -39 -6 -55q-7 -18 -27 -18h-147v-171q0 -27 -51 -29l-40 -2v202z" />
<glyph unicode="," horiz-adv-x="213" d="M137 161h1q19 0 29.5 -19.5t10.5 -46.5q0 -47 -28.5 -96t-67.5 -76q-34 -25 -96 -25h-9q73 87 73 191q0 20 -7 46q64 26 94 26z" />
<glyph unicode="-" horiz-adv-x="311" d="M276 315l2 -3q-4 -36 -18 -67t-32 -35q-34 -14 -99 -28q-61 -13 -90 -13h-4l-3 4q5 40 17 66.5t21 28.5q158 33 206 47z" />
<glyph unicode="." horiz-adv-x="213" d="M110 146h1q31 0 50 -22.5t19 -54.5q0 -37 -20.5 -58.5t-55.5 -21.5q-29 0 -50.5 19.5t-21.5 56.5q0 35 20 58t58 23z" />
<glyph unicode="/" horiz-adv-x="385" d="M346 641l-201 -699q-6 -20 -15.5 -25.5t-34.5 -7.5l-57 -3l207 706q4 15 11 20.5t25 6.5z" />
<glyph unicode="0" d="M256 602h1q52 0 91.5 -22t61 -54t35 -75t17.5 -78t4 -71q0 -152 -58.5 -233t-165.5 -81q-43 0 -79.5 15.5t-68 49t-49.5 94.5t-18 144q0 58 12.5 110.5t38 99t71.5 74t107 27.5zM245 524h-1q-36 0 -57 -55t-21 -167q0 -70 8.5 -120t22.5 -73.5t27 -33t28 -9.5 q75 0 75 236q0 83 -13 135t-30 69.5t-39 17.5z" />
<glyph unicode="1" d="M337 602l11 -5q0 -32 1.5 -281.5t1.5 -291.5q0 -14 -6 -19t-21 -7q-51 -4 -115 -4q2 106 2 481q-89 -25 -132 -29l-2 4l25 71q134 37 235 81z" />
<glyph unicode="2" d="M42 16l19 45q113 119 160.5 192.5t47.5 149.5q0 40 -21.5 67.5t-64.5 27.5q-50 0 -93 -36q-12 -10 -22 -10q-13 0 -22 16q-9 13 -11 39q33 47 86 71t113 24q85 0 130 -52t45 -125q0 -71 -46 -146q-48 -81 -158 -181q17 -2 80 -2t173 2q-5 -29 -22.5 -56t-30.5 -32 q-20 -13 -97 -13q-208 0 -261 10z" />
<glyph unicode="3" d="M44 79l2 2q60 -24 125 -24q131 0 131 107q0 92 -119 92q-12 0 -36 -2l-24 -2l-3 2q1 18 13 43t21 34q60 12 88 35.5t28 62.5q0 35 -20 54.5t-55 19.5q-39 0 -89 -32q-15 -10 -25 -10q-13 0 -19 14q-8 15 -8 36v9q23 32 73 57t104 25q53 0 90 -15.5t54 -39.5t23.5 -44.5 t6.5 -39.5q0 -86 -104 -132q72 -14 110 -54.5t38 -98.5q0 -98 -72.5 -153t-185.5 -55q-84 0 -117 28q-14 12 -23 34q-7 19 -7 38v9z" />
<glyph unicode="4" d="M402 620l4 -9q-174 -208 -267 -373q56 -8 116 -8h13l4 122q15 10 58 22t69 14l4 -4v-155q6 0 34 1.5t38 1.5l1 -2q-9 -42 -28 -74q-15 -6 -45 -11v-121q0 -18 -32 -23q-39 -7 -111 -7q7 91 7 150q-137 0 -217 14q-7 4 -19.5 26t-12.5 36q35 68 122.5 192t126.5 166 q55 31 135 42z" />
<glyph unicode="5" d="M64 271l-7 11q12 77 35.5 178t33.5 121h15q38 0 135 7q119 8 140 14l1 -3q-13 -70 -43 -93q-29 -21 -180 -29l-27 -108q103 -13 151 -30q71 -24 102.5 -60t31.5 -100q0 -95 -75 -152t-182 -57q-79 0 -107 22q-29 24 -29 74l4 3q45 -15 102 -15q67 0 107 26t40 80 q0 56 -73 81q-62 20 -175 30z" />
<glyph unicode="6" d="M460 562l-2 -1q-151 -20 -223 -104q-66 -80 -66 -211q0 -88 27 -134t67 -46q35 0 53 28.5t18 70.5q0 57 -27.5 81.5t-60.5 24.5q-28 0 -51 -7q1 14 8 35t15 29q13 11 41 21t53 10q77 0 115.5 -48t38.5 -115q0 -95 -62 -151.5t-155 -56.5q-98 0 -160 65t-62 187 q0 151 102 262q56 61 131 89.5t127 28.5q27 0 44.5 -12t28.5 -46z" />
<glyph unicode="7" d="M459 590l3 -4v-5q0 -85 -91 -288q-94 -209 -142 -265q-22 -27 -69 -35q-34 -5 -62 -5h-15l-1 4q69 88 140.5 228t109.5 265q-5 0 -82 -0.5t-141 -0.5q-51 0 -65 8q-11 7 -11 19q0 5 2 11q4 17 20 40.5t32 36.5q12 -9 86 -9h286z" />
<glyph unicode="8" d="M252 602h1q86 0 133 -45t47 -105q0 -45 -25 -75t-70 -55q62 -34 91 -70t29 -92q0 -76 -61 -124t-154 -48q-59 0 -102 15.5t-65 40.5t-32 51t-10 53q0 48 31 79.5t85 59.5q-94 53 -94 147q0 67 52 117.5t144 50.5zM245 526h-1q-31 0 -49.5 -19t-18.5 -47q0 -31 23 -54.5 t78 -48.5q40 34 40 88q0 35 -19.5 58t-52.5 23zM250 64h1q32 0 52 21.5t20 53.5q0 58 -109 109q-52 -35 -52 -93q0 -38 24 -64.5t64 -26.5z" />
<glyph unicode="9" d="M59 29l1 2q121 23 178 77q81 76 81 244q0 76 -21 124t-62 48q-34 0 -53.5 -30.5t-19.5 -75.5q0 -53 29.5 -81.5t63.5 -28.5q21 0 38 5q-1 -17 -8.5 -39t-18.5 -32q-23 -20 -79 -20q-70 0 -115 47.5t-45 125.5q0 85 60 146t160 61q104 0 158.5 -73.5t54.5 -181.5 q0 -178 -122 -289q-53 -48 -109.5 -68t-99.5 -20q-29 0 -43 10q-22 17 -28 49z" />
<glyph unicode=":" horiz-adv-x="213" d="M110 420h1q31 0 50 -22.5t19 -54.5q0 -37 -20.5 -58.5t-55.5 -21.5q-28 0 -50 20t-22 57q0 35 20.5 57.5t57.5 22.5zM110 146h1q31 0 50 -22.5t19 -54.5q0 -37 -20.5 -58.5t-55.5 -21.5q-28 0 -50 20t-22 57q0 35 20.5 57.5t57.5 22.5z" />
<glyph unicode=";" horiz-adv-x="213" d="M110 420h1q31 0 50 -22.5t19 -54.5q0 -37 -20.5 -58.5t-55.5 -21.5q-29 0 -50.5 19.5t-21.5 57.5q0 35 20.5 57.5t57.5 22.5zM137 161h1q19 0 29.5 -19.5t10.5 -46.5q0 -47 -28.5 -96t-67.5 -76q-34 -25 -96 -25h-9q73 85 73 191q0 20 -7 46q64 26 94 26z" />
<glyph unicode="&#x3c;" horiz-adv-x="576" d="M494 377l-312 -150v-3l312 -151q0 -30 -14 -70q-4 -9 -12 -9q-6 0 -14 4l-356 180q-15 7 -15 24q0 41 12 63l359 187q7 4 13 4q11 0 16 -14q11 -29 11 -65z" />
<glyph unicode="=" horiz-adv-x="576" d="M481 299h-419q1 47 7.5 66t24.5 19h420q-1 -42 -7.5 -63.5t-25.5 -21.5zM481 102h-419q1 47 7.5 66t24.5 19h420q-1 -42 -7.5 -63.5t-25.5 -21.5z" />
<glyph unicode="&#x3e;" horiz-adv-x="576" d="M83 71l312 150v3l-312 150q0 11 5 36t9 34t13 9q6 0 13 -3l356 -180q15 -7 15 -25q0 -39 -12 -63l-359 -186q-7 -4 -13 -4q-11 0 -16 14q-11 28 -11 65z" />
<glyph unicode="?" horiz-adv-x="373" d="M195 607h1q68 0 106.5 -35.5t38.5 -95.5q0 -55 -65 -126q-34 -37 -48 -60t-14 -47q0 -22 10 -46q-2 -4 -14 -8.5t-24 -4.5q-33 0 -55 24.5t-22 67.5q0 49 48 103q2 2 8 9t8 10l7 8q5 6 7 9l5 8q4 5 6 8l4 8q2 5 2.5 9t1.5 8.5t1 8.5q0 38 -44 38q-47 0 -95 -31h-4 q-16 14 -21 40q-2 8 -2 15q0 15 7 25q55 55 147 55zM186 144h1q31 0 51 -22.5t20 -53.5q0 -36 -21.5 -57.5t-56.5 -21.5q-29 0 -51 20t-22 56q0 34 20.5 56.5t58.5 22.5z" />
<glyph unicode="@" horiz-adv-x="786" d="M564 -30l3 -2q8 -8 8 -26q0 -5 -1 -10q-2 -26 -15 -36q-67 -58 -197 -58q-143 0 -232 87t-89 240q0 182 112 294.5t292 112.5q134 0 220 -81.5t86 -211.5q0 -112 -69 -187t-166 -75q-48 0 -66 24q-12 15 -12 42q0 16 4 36q-67 -102 -157 -102q-37 0 -59.5 32.5 t-22.5 91.5q0 114 68.5 189t184.5 75q38 0 84.5 -9t49.5 -9q-8 -29 -27 -124t-25 -137q-1 -6 -1 -11q0 -26 26 -26q35 0 70 52.5t35 139.5q0 97 -64 160t-161 63q-138 0 -222.5 -96.5t-84.5 -228.5q0 -122 69.5 -193.5t183.5 -71.5q95 0 175 56zM342 102h1q21 0 50.5 28 t49.5 75q20 46 35 127q-12 6 -39 6q-57 0 -91 -56.5t-34 -120.5q0 -59 28 -59z" />
<glyph unicode="A" horiz-adv-x="635" d="M412 167h-216l-61 -159q-6 -14 -28 -14q-49 0 -94 13l-1 4l242 586l-7 19q62 13 119 13q16 0 24 -19q32 -78 148 -386q63 -165 85 -214l-1 -4q-38 -12 -125 -12q-13 0 -20.5 6.5t-14.5 26.5q-4 13 -22 62zM225 254h163l-82 225z" />
<glyph unicode="B" horiz-adv-x="548" d="M67 8v479q0 82 -3 124q22 6 83 13t106 7q68 0 115 -14.5t69 -40t30.5 -49.5t8.5 -53q0 -85 -91 -132q63 -17 96 -56.5t33 -92.5q0 -97 -75 -150t-199 -53q-99 0 -173 18zM204 548v-192q29 5 80 5h18q41 23 41 94q0 47 -27 72t-66 25q-26 0 -46 -4zM204 280v-206 q16 -5 46 -5q53 0 83 30t30 84q0 46 -31 72.5t-86 26.5q-28 0 -42 -2z" />
<glyph unicode="C" horiz-adv-x="590" d="M562 104l2 -2q-2 -56 -35 -84q-50 -33 -143 -33q-168 0 -261.5 87.5t-93.5 233.5q0 152 101.5 243t255.5 91q66 0 118 -16.5t67 -33.5q1 -4 1 -8q0 -20 -12 -38q-15 -23 -37 -23q-69 27 -136 27q-90 0 -149.5 -60.5t-59.5 -172.5q0 -102 62.5 -167.5t175.5 -65.5 q75 0 144 22z" />
<glyph unicode="D" horiz-adv-x="662" d="M67 8v490q0 64 -2 112q23 6 90 13.5t127 7.5q85 0 149.5 -20.5t102 -51.5t60.5 -74t30.5 -82t7.5 -82q0 -156 -99.5 -243.5t-257.5 -87.5q-106 0 -208 18zM207 544v-464q32 -7 70 -7q27 0 52 5t54 21.5t50.5 42.5t35.5 72.5t14 106.5q0 111 -58 169t-160 58q-34 0 -58 -4 z" />
<glyph unicode="E" horiz-adv-x="471" d="M67 24v461q0 82 -3 126q62 14 127 14h235q-7 -53 -32 -82q-15 -6 -99 -6h-88v-170h208q-5 -50 -21.5 -69t-45.5 -19h-141v-191q35 -6 81 -6q112 0 164 4l2 -2q-13 -59 -55 -85q-23 -5 -143 -5q-126 0 -174 10z" />
<glyph unicode="F" horiz-adv-x="453" d="M67 14v490q0 44 -3 106q40 11 136 15h246q-9 -53 -39 -83q-14 -5 -80 -5h-120v-192h216q-8 -57 -24.5 -72.5t-51.5 -15.5h-140q0 -144 3 -255q-27 -8 -119 -8q-13 0 -18.5 4t-5.5 16z" />
<glyph unicode="G" horiz-adv-x="641" d="M455 76v142q0 21 -2 48t-2 30q111 15 120 15q13 0 18.5 -6t5.5 -21v-225q-31 -28 -81 -53q-74 -21 -138 -21q-66 0 -123.5 15t-109.5 49.5t-82.5 100.5t-30.5 158q0 152 101 242t253 90q75 0 131.5 -18t80.5 -41q0 -27 -18 -49q-16 -19 -36 -19h-4q-72 33 -153 33 q-90 0 -148 -58t-58 -172q0 -118 66.5 -183t157.5 -65q31 0 52 8z" />
<glyph unicode="H" horiz-adv-x="656" d="M207 370h242v226q0 16 5.5 21.5t20.5 7.5q14 1 117 4q-3 -57 -3 -180v-324q0 -63 3 -123q-35 -8 -119 -8q-13 0 -18.5 4t-5.5 16v273q-30 -3 -102 -3h-140v-258q0 -16 -7 -21t-27 -7q-45 -4 -84 -4h-25q3 60 3 183v317q0 98 -3 127q48 8 121 8q14 0 18 -10.5t4 -44.5 v-204z" />
<glyph unicode="I" horiz-adv-x="274" d="M67 14v480q0 98 -3 127q53 8 121 8q14 0 18 -10.5t4 -44.5v-449q0 -63 3 -123q-27 -8 -119 -8q-13 0 -18.5 4t-5.5 16z" />
<glyph unicode="J" horiz-adv-x="274" d="M67 152v343q0 99 -3 126q80 8 121 8q14 0 18 -10t4 -44v-422q0 -96 -13 -145.5t-46 -84.5q-23 -24 -58 -39t-66 -15q-23 0 -39.5 17.5t-20.5 43.5l2 2q44 8 63.5 25.5t28.5 61t9 133.5z" />
<glyph unicode="K" horiz-adv-x="586" d="M67 14v480q0 98 -3 127q53 8 121 8q14 0 18 -10.5t4 -44.5v-253q169 201 250 312q37 0 74 -8q18 -3 25 -10t4 -17t-15 -25q-17 -23 -51 -63l-80 -96l-69 -81q32 -53 113.5 -162t127.5 -162v-3q-8 -5 -41.5 -9.5t-65.5 -4.5q-29 0 -46 10t-44 43q-36 45 -104 142t-78 118 v-180q0 -63 3 -123q-27 -8 -119 -8q-13 0 -18.5 4t-5.5 16z" />
<glyph unicode="L" horiz-adv-x="447" d="M67 24v468q0 98 -3 129q64 8 121 8q14 0 18 -11t4 -49v-480q28 -7 81 -7q99 0 151 5l2 -2q-9 -59 -53 -86q-23 -5 -129 -5q-129 0 -177 10z" />
<glyph unicode="M" horiz-adv-x="818" d="M565 600v14q11 6 52.5 10.5t66.5 4.5q17 0 21 -32l48 -367q19 -145 33 -227q-32 -9 -113 -9q-27 0 -29 26q-13 128 -21 219l-22 232q-30 -99 -141 -428q-9 -29 -40 -35q-42 -8 -69 -8q-12 41 -73 233l-76 235q-30 -286 -51 -458q-3 -16 -18 -16q-83 0 -99 9 q6 36 38 249.5t54 344.5l-2 17q70 15 121 15q12 0 19 -9.5t18 -42.5l134 -377q99 279 149 400z" />
<glyph unicode="N" horiz-adv-x="658" d="M67 596l-15 20v5q61 8 141 8q13 0 29 -18q95 -145 167 -266q82 -139 100 -180q-5 69 -5 150v281q0 17 4.5 22t17.5 6q50 5 89 5q-3 -65 -3 -184v-440q-57 -17 -110 -17q-17 0 -29 16q-13 19 -148 236q-59 96 -135 245q5 -95 5 -197v-264q0 -14 -4.5 -19t-18.5 -7 q-25 -4 -62 -4h-26q3 60 3 182v420z" />
<glyph unicode="O" horiz-adv-x="709" d="M355 640h1q154 0 238.5 -93.5t84.5 -228.5q0 -143 -85.5 -238t-237.5 -95q-67 0 -122.5 18.5t-92.5 50t-62 73.5t-36.5 87.5t-11.5 94.5q0 145 87.5 238t236.5 93zM347 557h-1q-71 0 -118 -60t-47 -176q0 -119 52 -186t131 -67t122.5 63.5t43.5 175.5t-49.5 181 t-133.5 69z" />
<glyph unicode="P" horiz-adv-x="523" d="M67 12v471q0 89 -4 133q70 15 170 15q126 0 195.5 -47.5t69.5 -159.5q0 -51 -21 -92t-52.5 -63.5t-62.5 -34t-56 -11.5q-36 0 -48 7q-13 6 -24 26.5t-11 44.5q3 0 11.5 -0.5t10.5 -0.5q45 0 76 29t31 98q0 61 -32 91t-80 30q-15 0 -33 -3v-425q0 -58 3 -118 q-27 -8 -119 -8q-13 0 -18.5 3.5t-5.5 14.5z" />
<glyph unicode="Q" horiz-adv-x="709" d="M355 640h1q155 0 239 -93.5t84 -228.5q0 -103 -46.5 -183t-130.5 -118q37 -21 91 -65q94 -72 162 -83q0 -2 -1 -3q-11 -28 -41 -44t-62 -16q-79 0 -202 104q-46 40 -77 56t-72 22q-131 18 -200 105t-69 216q0 145 87.5 238t236.5 93zM348 557h-1q-72 0 -119 -60.5 t-47 -176.5q0 -117 51.5 -184.5t132.5 -67.5q79 0 122 63.5t43 172.5q0 115 -47.5 184t-134.5 69z" />
<glyph unicode="R" horiz-adv-x="551" d="M203 253v-229q0 -14 -5 -19t-19 -7q-39 -4 -116 -4q3 60 3 183v336q0 73 -2 100q20 5 85.5 11.5t99.5 6.5q125 0 183 -44t58 -137q0 -60 -36.5 -98t-81.5 -58q27 -23 83 -128q61 -115 104 -159v-4q-15 -11 -88 -11q-62 0 -96 42q-16 20 -85 157q-19 39 -35 50.5t-37 11.5 h-15zM203 550v-221q7 -1 16 -1q14 0 33 2q31 3 41 8q54 25 54 100q0 56 -30 85.5t-76 29.5q-23 0 -38 -3z" />
<glyph unicode="S" horiz-adv-x="451" d="M250 640h1q43 0 85 -15t60 -33q1 -22 -12 -45.5t-37 -27.5q-50 26 -100 26q-41 0 -63 -16.5t-22 -43.5q0 -30 25.5 -53t101.5 -70q36 -22 54.5 -35t40.5 -35t31 -49.5t9 -63.5q0 -91 -67.5 -142.5t-162.5 -51.5q-96 0 -149 37q-25 17 -25 37q-1 16 9 41t18 30 q28 -19 68 -32t74 -13q95 0 95 66q0 28 -23.5 52.5t-99.5 69.5q-132 74 -132 183q0 30 11 60t35 59t69.5 47t105.5 18z" />
<glyph unicode="T" horiz-adv-x="561" d="M209 12v525h-174q-20 0 -20 17q0 7 3 16q10 34 34 60q21 -5 142 -5h361q-6 -77 -56 -88h-150v-413q0 -62 3 -122q-50 -8 -119 -8q-13 0 -18.5 3.5t-5.5 14.5z" />
<glyph unicode="U" horiz-adv-x="657" d="M202 570v-277q0 -121 38.5 -165.5t100.5 -44.5q31 0 53.5 8.5t43 30.5t31 66t10.5 110v301q0 14 5 19t17 7q40 4 97 4q-3 -60 -3 -182v-144q0 -79 -16.5 -138t-42 -92.5t-63 -54t-72 -27t-76.5 -6.5q-133 0 -198 73t-65 226v208q0 98 -3 129q53 8 121 8q14 0 18 -11 t4 -48z" />
<glyph unicode="V" horiz-adv-x="619" d="M13 606q78 23 132 23q12 0 19.5 -11t19.5 -46l64 -178q55 -152 81 -235q43 130 164 472q65 0 100 -14q10 -3 10 -18q0 -11 -5 -28q-56 -153 -213 -536q-14 -29 -26 -35q-22 -12 -105 -12q-149 410 -241 618z" />
<glyph unicode="W" horiz-adv-x="869" d="M484 629h1q16 0 25 -36q23 -83 107 -431l131 467q31 0 72 -4q24 -3 31 -12q4 -5 4 -14q0 -7 -3 -18q-50 -174 -183 -553q-8 -24 -23 -29q-29 -11 -104 -11l-105 427q-20 -82 -104 -376q-9 -33 -29 -40q-33 -11 -94 -11q-20 64 -58 196l-70 236q-33 105 -64 186 q14 7 54 15t66 8q16 0 24 -12.5t19 -52.5l101 -391q1 2 104 397q-2 24 -6 37q61 22 104 22z" />
<glyph unicode="X" horiz-adv-x="582" d="M23 605v3q86 21 133 21q16 0 35 -30l114 -179q42 67 126 191q13 18 25 18q14 0 47 -7t54 -16v-3l-193 -270l100 -157l74 -114q26 -39 34 -53v-3q-10 -6 -50 -12t-84 -6q-21 0 -35 21l-126 209q-25 -43 -74 -118.5t-56 -87.5q-12 -18 -31 -18q-76 0 -107 12v3l209 301 q-160 248 -195 295z" />
<glyph unicode="Y" horiz-adv-x="566" d="M219 12v230q0 31 -8 46q-70 127 -198 319v3q72 19 123 19q16 0 25 -7.5t27 -39.5q19 -31 60 -108l58 -105q68 104 148 260q66 0 93 -11q12 -4 12 -16q0 -10 -10 -27q-11 -19 -53 -84l-83 -129l-43 -66q-11 -21 -11 -43v-131q0 -57 3 -120q-43 -8 -123 -8q-13 0 -16.5 3.5 t-3.5 14.5z" />
<glyph unicode="Z" horiz-adv-x="540" d="M530 84l1 -2q-9 -30 -31 -55t-35 -30q-1 0 -17.5 -0.5t-55 -1.5t-93.5 -1q-179 0 -264 8q-13 14 -14 26q84 122 180.5 283t127.5 227h-238q-43 0 -54 10q-6 5 -6 14q0 7 3 16q12 31 34 56q32 -9 85 -9h344q-3 -31 -20 -86q-10 -28 -95 -178l-158 -274q26 -6 144 -7h26 q98 0 136 4z" />
<glyph unicode="[" horiz-adv-x="343" d="M93 212v1q0 276 9 445q3 3 75 10t109 7q10 -17 10 -58q0 -6 -3.5 -8.5t-17.5 -4.5q-26 -3 -64 -11q-12 -3 -14 -22q-5 -64 -7 -366v-93q0 -168 3 -190q3 -18 22 -21q6 -1 60 -9q13 -2 12 -17q-1 -37 -10 -54q-39 0 -82.5 3.5t-71 7.5t-29.5 7q-3 26 -3 81.5t1 149 t1 142.5z" />
<glyph unicode="\" horiz-adv-x="351" d="M137 641l177 -699q3 -11 3 -18q0 -5 -2 -8q-4 -6 -20 -7l-75 -3l-173 705q-3 9 -3 15q0 3 1 6q3 6 19 7z" />
<glyph unicode="]" horiz-adv-x="343" d="M249 284v-1q0 -279 -9 -445q-3 -3 -75 -10t-109 -7q-10 17 -10 58q0 6 3.5 8.5t17.5 4.5q26 3 64 11q12 3 14 22q5 64 7 366v93q0 168 -3 190q-3 18 -22 21q-6 1 -60 9q-13 2 -12 17q1 35 11 54q39 0 82 -3.5t70.5 -7.5t29.5 -7q3 -26 3 -81.5t-1 -149t-1 -142.5z" />
<glyph unicode="^" horiz-adv-x="576" d="M73 214l162 368q4 9 8.5 12t16.5 4q43 4 67 4h9l168 -388q-6 -5 -30.5 -11t-43.5 -6q-16 0 -27 23l-115 285l-120 -292q-6 -16 -17 -16t-40.5 6t-37.5 11z" />
<glyph unicode="_" horiz-adv-x="500" d="M500 -75v-50h-500v50h500z" />
<glyph unicode="`" horiz-adv-x="400" d="M163 682q15 -1 39.5 -52.5t34.5 -94.5q2 -5 2 -9q0 -9 -9 -16q-16 -10 -39 -14q-55 80 -112 135q-4 3 -4 8t8 13q37 30 77 30h3z" />
<glyph unicode="a" horiz-adv-x="458" d="M441 83v-3q0 -92 -93 -92q-60 0 -84 53q-51 -53 -113 -53q-51 0 -89 35.5t-38 92.5q0 29 13.5 52.5t32 37.5t48 26t51 17t50.5 11q28 6 44 8v16q0 32 -21 51.5t-55 19.5q-35 0 -94 -28q-6 -1 -12 -1q-20 0 -30 16q-11 18 -11 39v6q97 67 186 67q68 0 117.5 -43.5 t49.5 -125.5q0 -17 -2 -78.5t-2 -97.5q0 -10 10 -18t29 -8h13zM152 137v-1q0 -26 16.5 -41t42.5 -15q24 0 42 14q8 10 8 33v78q-109 -14 -109 -68z" />
<glyph unicode="b" horiz-adv-x="519" d="M195 613v-193q20 11 53.5 22.5t52.5 11.5q94 0 143 -61t49 -150q0 -112 -77.5 -183.5t-190.5 -71.5q-74 0 -137 24q-29 12 -29 31v510q0 64 -4 106q18 7 59 13.5t60 6.5q13 0 17 -11t4 -55zM195 350v-279q20 -5 38 -5q46 0 82.5 38t36.5 118q0 58 -30.5 96.5t-84.5 38.5 q-25 0 -42 -7z" />
<glyph unicode="c" horiz-adv-x="423" d="M407 104l2 -2q-2 -58 -37 -88q-41 -26 -113 -26q-106 0 -169.5 60t-63.5 162q0 107 72 175.5t179 68.5q92 0 133 -39q1 -4 1 -8q0 -15 -9 -33q-11 -23 -33 -26q-42 16 -82 16q-53 0 -87.5 -34t-34.5 -101q0 -71 39.5 -107t96.5 -36t106 18z" />
<glyph unicode="d" horiz-adv-x="528" d="M330 447v105q0 72 -5 107q15 6 58 13t63 7q13 0 16.5 -11t3.5 -55v-500q0 -26 8.5 -36.5t29.5 -16.5v-3q-4 -23 -24 -46t-41 -23q-75 0 -94 52q-71 -52 -122 -52q-90 0 -143.5 59.5t-53.5 156.5q0 110 73 180t180 70q37 0 51 -7zM330 96v272q-20 8 -44 8q-47 0 -83 -36.5 t-36 -112.5q0 -68 33 -105t81 -37q31 0 49 11z" />
<glyph unicode="e" horiz-adv-x="443" d="M399 106l2 -2q0 -31 -20 -62t-35 -37q-34 -17 -90 -17q-112 0 -171 58t-59 170q0 95 59.5 166.5t157.5 71.5q90 0 134 -52t44 -122q0 -19 -4 -33q-4 -20 -80 -41q-16 -5 -79 -6h-39q-36 0 -58 1q4 -60 42 -88t89 -28q57 0 107 21zM233 380h-1q-28 0 -48.5 -27.5 t-21.5 -78.5q26 -3 57 -3t67 3q10 0 10 21q0 85 -63 85z" />
<glyph unicode="f" horiz-adv-x="289" d="M270 685h1q45 0 71 -23q3 -7 3 -16q0 -16 -11 -35q-12 -24 -29 -24q-3 0 -7 1q-13 5 -23 5q-39 0 -54 -38q-13 -32 -13 -89q0 -11 1 -24q89 0 113 2q-6 -51 -33 -72q-20 -14 -84 -14q0 -41 2.5 -186.5t2.5 -169.5q-62 -8 -128 -8q-15 0 -15 15q2 72 2 349q-59 6 -59 40 q7 9 15 15.5t22.5 15t21.5 13.5q0 128 70 193q54 50 131 50z" />
<glyph unicode="g" horiz-adv-x="447" d="M218 454h1q42 0 88 -13q41 -12 65 -12q49 0 85 13q4 -14 4 -28q0 -58 -52 -61q-2 0 -10.5 -0.5t-15.5 -0.5q10 -27 10 -54q0 -72 -51 -111.5t-129 -39.5q-9 0 -33 4q-11 -11 -11 -20q0 -24 41 -27l113 -8q69 -3 101.5 -36t32.5 -83q0 -87 -74 -138t-175 -51 q-88 0 -143 36.5t-55 94.5q0 28 23 48.5t67 40.5q-23 9 -41 31.5t-19 56.5q0 9 9 14q46 24 71 53q-93 35 -93 130q0 72 54.5 116.5t136.5 44.5zM212 386h-1q-27 0 -42 -24.5t-15 -57.5q0 -42 17 -66t48 -24q26 0 42 23t16 60q0 89 -65 89zM126 -61v-1q0 -30 32.5 -48.5 t82.5 -18.5q43 0 73 15t30 43q0 43 -70 53q-46 6 -80 6h-16q-15 0 -29 -7q-23 -13 -23 -42z" />
<glyph unicode="h" horiz-adv-x="527" d="M195 613v-215q71 56 134 56q65 0 102.5 -46t37.5 -127v-133q0 -88 3 -146q-88 -8 -116 -8q-23 0 -23 22v262q0 33 -18.5 55.5t-49.5 22.5q-36 0 -70 -25v-303q0 -15 -4 -20.5t-20 -7.5q-47 -6 -115 -6q3 90 3 180v379q0 64 -4 106q14 6 57.5 13t62.5 7q13 0 16.5 -11 t3.5 -55z" />
<glyph unicode="i" horiz-adv-x="253" d="M130 664h1q30 0 48 -20t18 -51q0 -32 -20.5 -53.5t-51.5 -21.5q-28 0 -48.5 17.5t-20.5 53.5q0 37 24 56t50 19zM195 384v-360q0 -13 -7 -18.5t-26 -7.5q-29 -4 -106 -4q3 123 3 158v170q0 73 -4 113q46 13 120 13q13 0 16.5 -10.5t3.5 -53.5z" />
<glyph unicode="j" horiz-adv-x="253" d="M130 664h1q30 0 48 -20.5t18 -51.5q0 -32 -20.5 -53t-51.5 -21q-28 0 -48.5 17.5t-20.5 53.5q0 37 24 56t50 19zM-50 -153l1 2q48 16 68 35t30 70t10 160v212q0 73 -4 109q46 13 120 13q13 0 16.5 -10.5t3.5 -52.5v-288q0 -169 -55 -241q-55 -68 -133 -68 q-20 0 -36.5 17.5t-20.5 41.5z" />
<glyph unicode="k" horiz-adv-x="477" d="M195 613v-382q166 203 178 223q7 1 15 1q24 0 59 -9q22 -7 22 -20q0 -10 -13 -28q-23 -30 -127 -151q21 -37 74.5 -119.5t85.5 -118.5v-2q-32 -15 -101 -15q-28 0 -45.5 10.5t-37.5 40.5q-83 120 -110 174v-193q0 -15 -7 -19.5t-26 -6.5q-39 -4 -87 -4h-19q3 62 3 184 v375q0 69 -4 111q42 15 120 15q13 0 16.5 -11t3.5 -55z" />
<glyph unicode="l" horiz-adv-x="253" d="M59 5v550q0 64 -4 104q13 6 56 13t63 7q13 0 17 -11t4 -54v-482q0 -74 4 -132q-35 -8 -126 -8q-14 0 -14 13z" />
<glyph unicode="m" horiz-adv-x="805" d="M200 327v-299q0 -15 -4 -20.5t-20 -7.5q-47 -6 -115 -6q3 90 3 181v168q0 34 -20 44v7q8 25 29.5 42.5t48.5 17.5q24 0 39.5 -10.5t21 -22t10.5 -30.5q82 63 141 63q82 0 121 -70q78 70 150 70q41 0 71 -17.5t44.5 -45.5t21 -55t6.5 -54v-132q0 -90 3 -148 q-96 -8 -117 -8q-22 0 -22 20v264q0 35 -18.5 56.5t-49.5 21.5q-36 0 -70 -29v-301q0 -14 -4 -19t-20 -7q-47 -6 -115 -6q3 90 3 181v102q0 36 -17.5 57.5t-49.5 21.5q-39 0 -71 -29z" />
<glyph unicode="n" horiz-adv-x="535" d="M340 14v262q0 37 -19.5 58.5t-47.5 21.5q-34 0 -73 -27v-303q0 -14 -4 -19t-20 -7q-47 -6 -115 -6q3 90 3 181v164q0 21 -4 31.5t-16 16.5v7q7 25 29 42.5t50 17.5q55 0 70 -62q78 62 133 62q150 0 150 -180v-124q0 -90 3 -148q-92 -8 -116 -8q-23 0 -23 20z" />
<glyph unicode="o" horiz-adv-x="504" d="M257 454h1q107 0 163.5 -66t56.5 -161q0 -107 -64 -173t-169 -66q-95 0 -157 59.5t-62 170.5q0 103 65.5 169.5t165.5 66.5zM247 376h-1q-79 0 -79 -144q0 -82 26 -124t66 -42q78 0 78 149q0 73 -23 117t-67 44z" />
<glyph unicode="p" horiz-adv-x="530" d="M200 2v-179q0 -15 -4 -21t-20 -8q-47 -6 -115 -6q3 66 3 156v397q0 40 -20 45v7q21 61 81 61q49 0 66 -55q83 55 134 55q81 0 129.5 -59.5t48.5 -150.5q0 -111 -70 -183.5t-172 -72.5q-38 0 -61 14zM200 335v-258q16 -6 45 -6q49 0 83 38.5t34 114.5q0 55 -26.5 92 t-68.5 37q-38 0 -67 -18z" />
<glyph unicode="q" horiz-adv-x="519" d="M390 439l70 2h3q0 -2 -1.5 -78t-1.5 -160v-378q0 -17 -12 -23t-56 -10q-45 -4 -71 -4q3 70 3 177v52q-58 -29 -85 -29q-97 0 -155 59t-58 159q0 109 74 178.5t185 69.5q56 0 105 -15zM325 89v280q-16 7 -40 7q-51 0 -84.5 -36.5t-33.5 -112.5q0 -65 34.5 -104t91.5 -39 q15 0 32 5z" />
<glyph unicode="r" horiz-adv-x="367" d="M41 390v4q3 20 27.5 40t51.5 20q68 0 71 -104q42 104 124 104q25 0 44 -14q8 -9 8 -23q0 -11 -5 -25q-1 -22 -16 -45.5t-28 -27.5q-30 13 -56 13q-37 0 -54 -46q-8 -21 -8 -47v-210q0 -14 -4.5 -20.5t-19.5 -8.5q-47 -6 -115 -6q3 90 3 181v170q0 35 -23 45z" />
<glyph unicode="s" horiz-adv-x="361" d="M203 454h1q66 0 113 -35q1 -5 1 -9q0 -19 -10 -36q-11 -22 -36 -24q-32 16 -70 16q-20 0 -32.5 -10t-12.5 -24q0 -20 34 -40q7 -4 21 -11l30 -15l25 -13q73 -40 73 -114q0 -72 -53.5 -111.5t-130.5 -39.5q-65 0 -108 28q-22 15 -22 33q0 16 9 35t21 28q51 -35 109 -35 q24 0 36.5 9.5t12.5 24.5q0 24 -35 43l-74 40q-69 41 -69 114q0 68 48.5 107t118.5 39z" />
<glyph unicode="t" horiz-adv-x="353" d="M332 97l2 -1q2 -13 2 -24q0 -33 -18 -49q-38 -35 -117 -35q-74 0 -106 39t-32 96v233q-25 0 -42.5 11t-17.5 19q10 22 55.5 66.5t68.5 61.5q31 25 82 32q-6 -60 -6 -104h142q-5 -28 -11 -45t-14.5 -24t-14 -8.5t-16.5 -2.5q-43 -5 -89 -5q-3 -67 -3.5 -120t3.5 -91 q7 -64 64 -64q38 0 68 15z" />
<glyph unicode="u" horiz-adv-x="529" d="M59 157v167q0 73 -4 111q54 13 120 13q13 0 16.5 -10.5t3.5 -53.5v-218q0 -44 22 -61.5t51 -17.5q35 0 62 21v292q0 23 4 30.5t19 10.5q71 7 116 7q0 -2 -1.5 -65.5t-1.5 -115.5v-153q0 -27 8.5 -38t29.5 -15v-5q-4 -27 -24.5 -47.5t-40.5 -20.5q-41 0 -61.5 15t-32.5 46 q-29 -27 -72 -46q-32 -15 -63 -15q-76 0 -113.5 46t-37.5 123z" />
<glyph unicode="v" horiz-adv-x="452" d="M124 454h1q19 0 28 -24q66 -200 91 -288q86 251 105 312q40 0 82 -17q14 -6 14 -25q0 -17 -11 -45q-15 -39 -68 -167l-72 -178q-7 -18 -32 -24q-48 -10 -89 -10q-18 54 -116 318l-49 122q19 10 55.5 18t60.5 8z" />
<glyph unicode="w" horiz-adv-x="670" d="M127 454h1q18 0 25 -26l17 -68l24 -102l27 -117q64 219 72 251q0 5 -6 32q65 19 98 19q12 0 17 -6.5t9 -24.5l31 -122q26 -99 36 -143q61 211 86 307q60 -2 88 -12q13 -4 13 -22q0 -12 -6 -30l-125 -360q-4 -11 -7 -16.5t-9 -10t-17 -6.5q-41 -9 -93 -9 q-11 45 -34.5 132.5t-35.5 136.5l-71 -226q-5 -17 -11.5 -24t-19.5 -10q-40 -9 -89 -9l-93 306q-26 81 -47 134q75 26 120 26z" />
<glyph unicode="x" horiz-adv-x="440" d="M18 430v3q14 6 55 13.5t65 7.5q17 0 25 -15l76 -124l74 118q13 21 28 21q45 0 85 -21v-3q-30 -42 -130 -192l144 -230v-3q-51 -11 -120 -11q-22 0 -33 18q-11 19 -38.5 61.5t-39.5 63.5l-78 -126q-11 -17 -29 -17q-60 0 -91 9v3q27 43 71 106t71 105q-10 14 -66.5 105 t-68.5 108z" />
<glyph unicode="y" horiz-adv-x="440" d="M50 -160v3q25 24 63.5 77t63.5 101q-10 17 -23 46q-103 272 -145 358q64 29 115 29q10 0 16.5 -5t9 -10t7.5 -17q51 -132 91 -265q23 61 49.5 153.5t35.5 143.5q31 -2 73 -12q20 -4 25 -15q2 -5 2 -12q0 -8 -3 -18q-47 -199 -128 -361q-51 -103 -98 -170t-66 -67 q-27 0 -51.5 13t-36.5 28z" />
<glyph unicode="z" horiz-adv-x="406" d="M23 7l-11 19l36 58l62 98l58 94q32 53 45 80h-132q-36 0 -50 9q-10 6 -10 17q0 5 2 11q13 45 31 57q14 -8 80 -8h246q-1 -11 -2 -25q-2 -14 -8 -31q-3 -6 -4 -9q-8 -23 -62 -121l-99 -171q19 -4 81 -4q8 0 16 1q76 0 105 3q-13 -60 -37 -74q-10 -6 -16.5 -8.5t-33 -4.5 t-78.5 -2q-163 0 -219 11z" />
<glyph unicode="{" horiz-adv-x="343" d="M296 -117v-1q0 -39 -12 -60q-92 1 -135.5 35.5t-43.5 104.5q0 24 10 97t10 95q0 42 -15 61t-54 24q-7 1 -12 20q-5 14 -5 29q0 5 1 11q51 11 68 30t17 52q0 17 -8.5 72t-8.5 89q0 84 58 125q42 31 123 32q7 -16 7 -50q0 -18 -16 -23q-38 -13 -54 -28t-16 -50 q0 -26 10.5 -78t10.5 -76q0 -86 -85 -115q85 -30 85 -127q0 -34 -10.5 -97.5t-10.5 -87.5q0 -56 72 -69q14 -3 14 -15z" />
<glyph unicode="|" horiz-adv-x="309" d="M207 750v-1000h-104v1000h104z" />
<glyph unicode="}" horiz-adv-x="343" d="M46 639v1q0 39 12 60q92 -1 135.5 -35.5t43.5 -104.5q0 -24 -10 -94t-10 -92q0 -37 15.5 -55.5t53.5 -23.5q7 -1 12 -20q5 -14 5 -28q0 -6 -1 -11q-51 -11 -68 -30.5t-17 -52.5q0 -18 8.5 -79t9.5 -93q0 -84 -54 -123q-48 -34 -128 -35q-6 13 -6 50q0 18 16 23 q38 13 54 28t16 50q0 25 -10.5 80t-11.5 86q0 86 85 115q-85 30 -85 121q0 34 10.5 94.5t10.5 84.5q0 56 -72 69q-14 3 -14 15z" />
<glyph unicode="~" horiz-adv-x="576" d="M198 351h1q30 0 57 -14.5t64 -52.5q50 -54 76 -54q18 0 28.5 21t14.5 81q1 15 17 15q45 0 69 -24q-3 -110 -39.5 -149.5t-93.5 -39.5q-36 0 -64.5 19.5t-61.5 55.5q-48 48 -72 48q-12 0 -20 -5t-18 -29t-17 -68q-3 -18 -19 -18q-12 0 -37 8.5t-32 16.5q6 62 22.5 103 t40 58t42 22.5t42.5 5.5z" />
<glyph unicode="&#xa1;" horiz-adv-x="234" d="M115 299h-1q-30 0 -49 22.5t-19 53.5q0 36 21 57.5t56 21.5q28 0 50 -20t22 -56t-21 -57.5t-59 -21.5zM69 -164h-1q-13 0 -20 6.5t-7 25.5q0 43 13.5 166t20.5 166q3 18 24 25q51 11 54 11q35 -277 36 -376q-3 -9 -46 -16.5t-74 -7.5z" />
<glyph unicode="&#xa2;" d="M355 582l-10 -78q57 -7 94 -33q1 -18 -10.5 -40t-34.5 -27q-32 17 -69 17q-64 0 -92 -35t-28 -87q0 -63 40 -93.5t92 -30.5q55 0 103 20q0 -66 -38 -86q-34 -21 -81 -21l-6 -61q-2 -16 -9.5 -23t-29.5 -8l-55 -3l12 100q-25 5 -49 15t-54 30.5t-48.5 59t-18.5 90.5 q0 55 20 96.5t52.5 65t62.5 35.5t61 17l5 50q2 14 9 19t32 7z" />
<glyph unicode="&#xa3;" d="M29 13v16q78 66 78 229q-46 0 -62 14q3 30 18 44t49 27q5 123 55 193.5t151 70.5q57 0 96 -31q1 -3 1 -7q0 -13 -9 -35q-12 -26 -31 -29q-22 10 -42 10q-47 0 -62.5 -38t-19.5 -135q130 0 159 3q-5 -34 -16 -54.5t-20 -26t-19 -5.5q-13 -1 -110 -1q-6 -114 -72 -172 q89 -29 170 -29q65 0 109 11l2 -2q-3 -52 -47 -88q-27 -17 -88 -17q-87 0 -290 52z" />
<glyph unicode="&#xa4;" d="M239 490h1h6q23 0 50 -6q29 -8 43 -18q35 35 60 70q43 -18 43 -53q0 -15 -54 -71q30 -48 30 -109q0 -31 -13 -68t-33 -58q62 -66 68 -76q-3 -14 -21 -33t-28 -19q-3 0 -9.5 5t-16 15.5l-16.5 18.5l-19 24l-16 19q-46 -27 -96 -27q-49 0 -73 15q-27 -37 -45 -55 q-17 -17 -33 -17l-17 4q-31 16 -32 31q58 67 64 75q-50 47 -50 135q0 66 48 126l-41 40q-13 14 -13 27q0 10 8 20q15 21 42 29l28 -30l40 -41q43 27 95 27zM223 424h-1q-38 0 -65 -34.5t-27 -93.5t28 -92.5t68 -33.5q44 0 69 34.5t25 94.5t-26 92.5t-71 32.5z" />
<glyph unicode="&#xa5;" d="M308 332h109q-3 -67 -33 -67h-91v-60h110q0 -20 -8 -43.5t-20 -23.5h-82v-138q-104 -8 -115 -8q-12 0 -16.5 3.5t-4.5 15.5v127h-109q0 16 4 40t8 27h97v60h-114q0 16 4 40t8 27h90l-41 72l-60 105q-28 48 -36 60v4q58 14 129 14q10 0 17 -10q89 -177 94 -189l30 63 l38 83q18 37 27 52q17 2 34 2q26 0 53 -4q8 -1 13 -4q6 -3 6 -8q0 -2 -1 -4z" />
<glyph unicode="&#xa6;" horiz-adv-x="309" d="M207 675v-350h-104v350h104zM207 175v-350h-104v350h104z" />
<glyph unicode="&#xa7;" horiz-adv-x="448" d="M35 346v1q0 44 20.5 83.5t40 58.5t49.5 41q42 58 122 58q43 0 77 -23q7 -9 0 -29t-19 -28q-32 15 -59 15q-23 0 -36.5 -10t-13.5 -26q0 -17 14.5 -38t29.5 -36t45 -41q6 -5 9 -8q51 -48 73 -86.5t22 -98.5q0 -58 -34.5 -114.5t-82.5 -92.5q-46 -61 -129 -61q-39 0 -60 13 q-15 10 -19 31q-1 7 -1 14q0 13 5 25q30 -13 76 -13q23 0 42.5 13.5t19.5 36.5q0 7 -3 16t-10 20t-13 19t-18 21l-18 19l-18 20q-14 15 -17 18q-32 35 -47.5 54t-31 54.5t-15.5 73.5zM333 139v1q0 44 -20.5 76.5t-62.5 73.5l-22 22q-19 19 -26 26.5t-22 25t-22 29.5t-14 28 t-9 31q-22 -35 -22 -67q0 -40 22.5 -74.5t67.5 -82.5q35 -37 52 -57t33 -50t18 -59q27 38 27 77z" />
<glyph unicode="&#xa8;" horiz-adv-x="400" d="M107 656h1q24 0 41 -18.5t17 -43.5q0 -31 -17.5 -49t-46.5 -18q-25 0 -43 16t-18 46t17.5 48.5t48.5 18.5zM300 656h1q26 0 42.5 -18.5t16.5 -43.5q0 -31 -17.5 -49t-46.5 -18q-24 0 -42.5 16.5t-18.5 45.5q0 30 17 48.5t48 18.5z" />
<glyph unicode="&#xa9;" horiz-adv-x="699" d="M351 631h1q133 0 222.5 -90.5t89.5 -224.5q0 -137 -90.5 -225.5t-222.5 -88.5q-135 0 -225.5 88.5t-90.5 225.5t90.5 226t225.5 89zM352 579h-1q-106 0 -177 -75t-71 -188q0 -112 71 -187t179 -75q105 0 174 75.5t69 188.5q0 109 -68 185t-176 76zM469 227l2 -2 q0 -13 -6.5 -31t-16.5 -25q-23 -17 -77 -17q-87 0 -133.5 44.5t-46.5 120.5q0 74 54 119t129 45q38 0 65.5 -9.5t34.5 -19.5q0 -18 -10 -33q-4 -7 -12.5 -10t-16.5 1q-37 11 -67 11q-41 0 -68.5 -27.5t-27.5 -73.5q0 -45 31 -75t87 -30q46 0 79 12z" />
<glyph unicode="&#xaa;" horiz-adv-x="351" d="M336 347v-13q-1 -26 -20.5 -42.5t-51.5 -16.5q-51 0 -66 35q-13 -13 -37 -24t-47 -11q-40 0 -66 21.5t-26 60.5q0 43 39.5 64.5t102.5 33.5q12 2 22 4t11 2v8q0 13 -12 22t-32 9q-26 0 -61 -15q-13 -7 -24 -7q-22 0 -30 32l-3 18q23 17 63.5 30.5t77.5 13.5 q53 0 87 -26.5t34 -79.5q0 -10 -1.5 -48.5t-1.5 -61.5q9 -11 24 -11q10 0 18 2zM123 371v-1q0 -12 9 -19.5t23 -7.5q20 0 33 13q8 9 8 21v35q-73 -6 -73 -41z" />
<glyph unicode="&#xab;" horiz-adv-x="610" d="M458 67v-1q0 -12 -18.5 -26t-33.5 -18q-56 97 -157 191q-10 11 -10 25q49 34 88 79t91 117q13 -3 30.5 -17t18.5 -28q0 -19 -38 -76t-62 -84q23 -29 57 -86t34 -76zM257 382v-1q0 -14 -36 -73t-53 -79q79 -116 79 -153q1 -12 -16 -25.5t-31 -16.5q-55 99 -151 180 q-7 10 -7 24q97 77 169 184q13 -2 29.5 -15.5t16.5 -24.5z" />
<glyph unicode="&#xac;" horiz-adv-x="576" d="M423 72v219h-360q2 85 32 85h405l14 -14v-260q0 -11 -7 -17.5t-19.5 -9t-23.5 -3.5q-6 -1 -15 -1q-4 0 -9 1h-17z" />
<glyph unicode="&#xad;" horiz-adv-x="311" d="M276 315l2 -3q-4 -36 -18 -67t-32 -35q-34 -14 -99 -28q-61 -13 -90 -13h-4l-3 4q5 40 17 66.5t21 28.5q158 33 206 47z" />
<glyph unicode="&#xae;" horiz-adv-x="308" d="M154 640h1q56 0 92 -37t36 -92q0 -54 -36 -91t-93 -37t-92.5 36.5t-35.5 91.5q0 56 35.5 92.5t92.5 36.5zM154 613h-1q-41 0 -66.5 -29t-25.5 -72q0 -44 26.5 -73t67.5 -29q40 0 66.5 28.5t26.5 73.5q0 44 -26 72.5t-68 28.5zM139 497v-33q0 -12 -10 -13q-17 0 -24 -1 v124q24 3 46 3q52 0 52 -38q0 -19 -25 -30q4 -5 18 -28t18 -28v-2q-18 -2 -24 -2q-12 0 -20 11q-3 5 -17 30q-6 9 -14 7zM139 554v-36q3 0 17 2q12 6 12 16q0 19 -18 19q-8 0 -11 -1z" />
<glyph unicode="&#xaf;" horiz-adv-x="400" d="M299 543h-205q-14 0 -14 15q0 16 6.5 40.5t11.5 29.5h210q12 0 12 -14q0 -18 -6.5 -40.5t-14.5 -30.5z" />
<glyph unicode="&#xb0;" horiz-adv-x="303" d="M156 602h1q53 0 85 -36.5t32 -82.5q0 -55 -35 -89.5t-94 -34.5q-45 0 -80.5 31.5t-35.5 86.5t35.5 90t91.5 35zM152 540h-1q-23 0 -36 -18t-13 -43q0 -26 15 -42t34 -16q51 0 51 61q0 22 -13 40t-37 18z" />
<glyph unicode="&#xb1;" horiz-adv-x="576" d="M242 310h-180q1 49 7.5 67t24.5 18h148v91q0 40 -3 66l71 6h3q12 0 16 -6q4 -8 4 -29v-128h180q-1 -50 -7 -67.5t-26 -17.5h-147v-156q0 -13 -10.5 -20t-40.5 -8l-40 -2v186zM481 0h-418q1 50 7.5 67.5t24.5 17.5h419q-1 -48 -7.5 -66.5t-25.5 -18.5z" />
<glyph unicode="&#xb2;" horiz-adv-x="319" d="M36 648l-2 1q0 35 11 57q42 44 112 44q55 0 84.5 -28t29.5 -73q0 -10 -2 -20t-4 -18t-8 -17.5t-9 -15t-12 -14.5t-12 -12.5t-14.5 -13t-13.5 -10.5l-15 -12q-13 -10 -14 -11q14 -1 45.5 -1t80.5 1q-17 -60 -37 -69q-26 -9 -89 -9q-110 0 -134 6l-4 6q3 6 23 50 q29 22 48 38.5t39.5 45.5t20.5 54q0 21 -13 33t-34 12q-44 0 -77 -24z" />
<glyph unicode="&#xb3;" horiz-adv-x="319" d="M77 549l-3 4q2 4 6 15l6 21q3 9 6 13q44 7 60 18.5t16 30.5q0 14 -12 22.5t-30 8.5q-38 0 -72 -28q-13 15 -13 31t14 29q13 12 42 24t63 12q51 0 78 -25t27 -53t-14.5 -43.5t-40.5 -28.5q78 -15 78 -82q0 -51 -48 -83t-116 -32q-37 0 -66 13q-23 19 -23 57l3 3 q29 -11 63 -11q77 0 77 48q0 40 -58 40q-23 0 -43 -4z" />
<glyph unicode="&#xb4;" horiz-adv-x="400" d="M239 681h1q38 0 75 -30q4 -4 4 -8q0 -6 -6 -13q-35 -39 -113 -135q-19 3 -39 15q-6 5 -6 14q0 6 3 14q50 143 81 143z" />
<glyph unicode="&#xb5;" horiz-adv-x="527" d="M175 20l5 -238h-21q-31 0 -69 2q-30 2 -36 10q-5 7 -5 28v7l11 317v172q0 84 -4 111q56 15 119 15q13 0 17 -11t4 -54v-208q0 -43 20 -60t45 -17q41 0 66 31v270q0 23 4 30.5t19 9.5q83 8 116 9q0 -5 -1.5 -68t-1.5 -114v-143q0 -27 10.5 -39.5t36.5 -16.5v-5 q-16 -70 -73 -70q-40 0 -59.5 15.5t-32.5 44.5q-23 -23 -32.5 -31.5t-30 -18t-44.5 -9.5q-20 0 -38 9.5t-25 21.5z" />
<glyph unicode="&#xb6;" horiz-adv-x="511" d="M291 151l-48 -16q-18 -7 -38 -7q-64 0 -113.5 52t-49.5 129q0 97 60 153t156 56h97h124l1 -4q-18 -38 -28 -57l-64 -6v-295q0 -114 -14 -169t-58 -92q-48 -41 -123 -41q-43 0 -75.5 16t-37.5 33q-1 5 -1 11q0 10 4 24q7 21 13 26q57 -33 97 -33q98 0 98 166v54z" />
<glyph unicode="&#xb7;" horiz-adv-x="213" d="M110 314h1q31 0 50 -22.5t19 -54.5q0 -37 -20.5 -58.5t-55.5 -21.5q-28 0 -50 20t-22 57q0 35 20.5 57.5t57.5 22.5z" />
<glyph unicode="&#xb8;" horiz-adv-x="400" d="M184 4h72l-38 -52q30 -9 48 -31t18 -50q0 -45 -42.5 -75.5t-95.5 -32.5q-13 3 -22 16.5t-9 23.5q0 11 9 14q63 14 63 42q0 17 -19 27q-14 7 -35 7q-7 0 -14 -1v27z" />
<glyph unicode="&#xb9;" horiz-adv-x="319" d="M239 750l4 -2q-1 -14 -2 -124q0 -55 -0.5 -99.5t0.5 -78.5q0 -9 -5 -12t-20 -5l-82 -6q0 6 0.5 48.5t1.5 101t1 82.5q-29 -9 -84 -13l-1 2l18 60q117 24 169 46z" />
<glyph unicode="&#xba;" horiz-adv-x="373" d="M194 572h1q71 0 113.5 -43t42.5 -103q0 -71 -48 -111t-121 -40q-67 0 -113 37.5t-46 106.5q0 71 49 112t122 41zM186 507h-1q-23 0 -36.5 -22t-13.5 -60q0 -40 15.5 -62.5t37.5 -22.5q51 0 51 83q0 35 -12.5 59.5t-40.5 24.5z" />
<glyph unicode="&#xbb;" horiz-adv-x="606" d="M153 388v1q0 12 18 26.5t33 17.5q60 -103 159 -192q9 -12 9 -26q-83 -58 -178 -196q-13 2 -31.5 16t-19.5 28q0 20 37.5 76t63.5 87q-22 27 -56.5 85t-34.5 77zM346 71v1q0 15 37 74.5t55 79.5q-23 31 -51.5 81t-28.5 72q-1 11 16 25t31 17q57 -103 150 -180q9 -12 9 -26 q-99 -79 -171 -185q-13 3 -30 16.5t-17 24.5z" />
<glyph unicode="&#xbc;" horiz-adv-x="695" d="M227 602l4 -2q-1 -15 -2 -124q0 -55 -0.5 -99.5t0.5 -78.5q0 -9 -5 -12t-20 -5l-82 -6q0 6 0.5 49t1.5 101.5t1 82.5q-12 -4 -84 -14l-2 3l19 59q134 30 169 46zM547 587l-361 -602q-8 -14 -18 -14q-4 0 -9 3q-27 18 -36 37l364 610q4 7 12 7q5 0 11 -3q30 -16 37 -38z M604 337l1 -2q-110 -115 -168 -208q37 -2 53 -2h8l2 55q9 7 41 16t54 9h3v-79q12 0 41 3l2 -1q-2 -10 -9 -29t-13 -25q-14 -6 -21 -7v-64q-36 -3 -65.5 -6.5t-30.5 -3.5l-7 6q3 60 3 66q-92 0 -130 6q-4 2 -13 18.5t-9 20.5q29 47 74 106.5t74 87.5q11 9 45 19t65 14z" />
<glyph unicode="&#xbd;" horiz-adv-x="695" d="M228 602l3 -2q-1 -15 -2 -124q0 -55 -0.5 -99.5t0.5 -78.5q0 -9 -5 -12t-20 -5l-82 -6q0 6 0.5 49t1.5 101.5t1 82.5q-12 -4 -84 -14l-2 3l19 59q136 31 170 46zM539 587l-361 -602q-8 -14 -18 -14q-4 0 -9 3q-27 18 -37 36l365 611q5 7 13 7q5 0 11 -3q28 -15 36 -38z M518 320h1q54 0 83.5 -27.5t29.5 -73.5q0 -13 -3 -25t-6 -21.5t-12 -20.5t-13 -17t-17 -17t-16.5 -14.5t-19 -15t-17.5 -13.5q14 -1 45.5 -1t80.5 1q-14 -58 -37 -69q-26 -9 -89 -9q-111 0 -135 6l-3 5l23 51q29 22 48 38.5t39.5 45.5t20.5 55q0 21 -13.5 33t-34.5 12 q-43 0 -75 -25l-4 3v8q0 24 11 45q41 46 113 46z" />
<glyph unicode="&#xbe;" horiz-adv-x="695" d="M169 602h1q50 0 77 -24.5t27 -52.5q0 -29 -14 -45t-41 -29q78 -13 78 -81q0 -50 -48.5 -82.5t-116.5 -32.5q-36 0 -65 13q-22 20 -23 57l3 4q34 -12 62 -12q78 0 78 50q0 38 -58 38q-20 0 -44 -3l-2 4l7 22q7 20 11 25q44 7 60 19t16 31q0 15 -12 24t-30 9q-36 0 -72 -30 q-13 15 -13 32q0 15 14 28q13 12 42 24t63 12zM575 587l-359 -602q-8 -14 -18 -14q-5 0 -10 3q-28 19 -36 37l364 610q4 7 12 7q5 0 11 -3q28 -15 36 -38zM618 337l1 -2q-102 -107 -164 -208q35 -2 50 -2h7l2 55q9 7 41.5 16t53.5 9h3v-79q12 0 41 3l2 -2q-2 -10 -9 -28.5 t-13 -24.5q-14 -6 -21 -7v-64q-36 -3 -65 -6.5t-30 -3.5l-8 7q3 60 3 65q-89 0 -125 6q-4 2 -13.5 18.5t-9.5 20.5q31 51 73.5 109t70.5 85q11 9 46.5 19.5t63.5 13.5z" />
<glyph unicode="&#xbf;" horiz-adv-x="373" d="M190 299h-1q-30 0 -50 23t-20 53q0 36 22 57.5t57 21.5q28 0 50 -20t22 -56t-21 -57.5t-59 -21.5zM182 -164h-1q-68 0 -106.5 35.5t-38.5 95.5q0 56 64 126q34 35 48 58.5t14 48.5q0 22 -10 46q2 4 16 8.5t25 4.5q33 0 53.5 -24.5t20.5 -67.5q0 -49 -47 -103q-2 -2 -8 -9 t-8 -9l-7 -9q-5 -6 -7 -9l-6 -8q-3 -5 -4 -8l-4 -8q-3 -5 -3.5 -9t-1.5 -8.5t-1 -8.5q0 -19 13.5 -28.5t31.5 -9.5q45 0 94 31h5q16 -14 20 -39q2 -8 2 -15q0 -15 -7 -26q-55 -55 -147 -55z" />
<glyph unicode="&#xc0;" horiz-adv-x="635" d="M412 167h-216l-61 -159q-6 -14 -28 -14q-49 0 -94 13l-1 4l242 586l-7 19q62 13 119 13q16 0 24 -19q32 -78 148 -386q63 -165 85 -214l-1 -4q-38 -12 -125 -12q-13 0 -20.5 6.5t-14.5 26.5q-4 13 -22 62zM225 254h163l-82 225zM235 828h1q13 0 62.5 -35t81.5 -64 q10 -10 10 -21q0 -8 -6 -17q-9 -15 -18 -26q-144 67 -178 80q-9 3 -9 12q0 4 2 9q9 24 23.5 43t30.5 19z" />
<glyph unicode="&#xc1;" horiz-adv-x="635" d="M412 167h-216l-61 -159q-6 -14 -28 -14q-49 0 -94 13l-1 4l242 586l-7 19q62 13 119 13q16 0 24 -19q32 -78 148 -386q63 -165 85 -214l-1 -4q-38 -12 -125 -12q-13 0 -20.5 6.5t-14.5 26.5q-4 13 -22 62zM225 254h163l-82 225zM421 814q17 -3 29 -20.5t16 -31.5t4 -18 q0 -11 -15 -16q-39 -12 -108.5 -37.5t-73.5 -26.5q-1 2 -19 28q-4 7 -4 13q0 11 11 20q36 30 86 59.5t74 29.5z" />
<glyph unicode="&#xc2;" horiz-adv-x="635" d="M412 167h-216l-61 -159q-6 -14 -28 -14q-49 0 -94 13l-1 4l242 586l-7 19q62 13 119 13q16 0 24 -19q32 -78 148 -386q63 -165 85 -214l-1 -4q-38 -12 -125 -12q-13 0 -20.5 6.5t-14.5 26.5q-4 13 -22 62zM225 254h163l-82 225zM239 664h-1q-18 0 -36.5 12.5t-22.5 24.5 q61 40 111 100q8 9 20 12q19 4 44 4q51 -63 118 -117q-7 -10 -24 -23t-30 -13q-15 0 -27 6q-24 16 -66 54q-31 -29 -68 -53q-14 -7 -18 -7z" />
<glyph unicode="&#xc3;" horiz-adv-x="635" d="M412 167h-216l-61 -159q-6 -14 -28 -14q-49 0 -94 13l-1 4l242 586l-7 19q62 13 119 13q16 0 24 -19q32 -78 148 -386q63 -165 85 -214l-1 -4q-38 -12 -125 -12q-13 0 -20.5 6.5t-14.5 26.5q-4 13 -22 62zM225 254h163l-82 225zM282 810h1q31 0 59 -34q17 -22 25 -22 q15 0 23 46q3 10 11 10q29 0 50 -14q-11 -128 -81 -128q-27 0 -63 38q-19 22 -29 22q-14 -2 -24 -46q-2 -10 -8 -10q-35 0 -54 8q9 130 90 130z" />
<glyph unicode="&#xc4;" horiz-adv-x="635" d="M412 167h-216l-61 -159q-6 -14 -28 -14q-49 0 -94 13l-1 4l242 586l-7 19q62 13 119 13q16 0 24 -19q32 -78 148 -386q63 -165 85 -214l-1 -4q-38 -12 -125 -12q-13 0 -20.5 6.5t-14.5 26.5q-4 13 -22 62zM225 254h163l-82 225zM227 797h1q23 0 39 -18t16 -42 q0 -30 -17 -47.5t-44 -17.5q-24 0 -42 16t-18 45q0 28 17 46t48 18zM422 797h1q24 0 39.5 -17.5t15.5 -42.5q0 -30 -16.5 -47.5t-44.5 -17.5q-23 0 -40.5 16t-17.5 45q0 28 16.5 46t46.5 18z" />
<glyph unicode="&#xc5;" horiz-adv-x="635" d="M412 167h-216l-61 -159q-6 -14 -28 -14q-49 0 -94 13l-1 4l242 586l-7 19q62 13 119 13q16 0 24 -19q32 -78 148 -386q63 -165 85 -214l-1 -4q-38 -12 -125 -12q-13 0 -20.5 6.5t-14.5 26.5q-4 13 -22 62zM225 254h163l-82 225zM329 860h1q40 0 67 -27.5t27 -68.5 q0 -44 -30 -73t-77 -29q-39 0 -68 25.5t-29 70.5q0 43 29 72.5t80 29.5zM321 807h-1q-16 0 -26 -14.5t-10 -32.5q0 -21 11.5 -33.5t27.5 -12.5q37 1 37 46q0 47 -39 47z" />
<glyph unicode="&#xc6;" horiz-adv-x="787" d="M402 236h-170l-115 -233q-6 -15 -24 -15q-16 0 -30 2.5t-21 5.5t-16 8l-12 5l-1 10l285 569q7 13 10 28q84 9 113 9h320q-7 -50 -34 -75q-11 -10 -91 -10h-96l14 -220h188q-17 -58 -33 -72t-46 -14h-103l12 -151q28 -5 93 -5q89 0 125 4l2 -2q-9 -33 -23.5 -50t-39.5 -31 q-23 -5 -104 -5q-133 0 -177 10l-14 20zM401 320l-11 223q-16 0 -28 -27l-46 -95q-39 -78 -49 -101h134z" />
<glyph unicode="&#xc7;" horiz-adv-x="590" d="M282 -81l53 69q-145 13 -224.5 98t-79.5 220q0 154 102 244t257 90q62 0 113 -16.5t69 -36.5q0 -35 -23 -55q-14 -12 -30 -12q-9 0 -18 4q-43 20 -114 20q-90 0 -148.5 -59.5t-58.5 -169.5q0 -98 62.5 -164t171.5 -66q68 0 147 22l4 -2q-9 -58 -36 -90q-42 -26 -123 -29 l-25 -34q30 -10 48 -31.5t18 -50.5q0 -44 -42.5 -75t-95.5 -33q-13 3 -22 17t-9 24q0 11 9 13q63 14 63 43q0 16 -20 26q-13 7 -32 7q-8 0 -16 -1v28z" />
<glyph unicode="&#xc8;" horiz-adv-x="471" d="M67 24v461q0 82 -3 126q62 14 127 14h235q-7 -53 -32 -82q-15 -6 -99 -6h-88v-170h208q-5 -50 -21.5 -69t-45.5 -19h-141v-191q35 -6 81 -6q112 0 164 4l2 -2q-13 -59 -55 -85q-23 -5 -143 -5q-126 0 -174 10zM163 828h1q13 0 62.5 -35t81.5 -64q10 -10 10 -21 q0 -8 -6 -17q-9 -15 -18 -26q-144 67 -178 80q-9 3 -9 12q0 4 2 9q9 24 23.5 43t30.5 19z" />
<glyph unicode="&#xc9;" horiz-adv-x="471" d="M67 24v461q0 82 -3 126q62 14 127 14h235q-7 -53 -32 -82q-15 -6 -99 -6h-88v-170h208q-5 -50 -21.5 -69t-45.5 -19h-141v-191q35 -6 81 -6q112 0 164 4l2 -2q-13 -59 -55 -85q-23 -5 -143 -5q-126 0 -174 10zM349 814q17 -3 29 -20.5t16 -31.5t4 -18q0 -11 -15 -16 q-39 -12 -108.5 -37.5t-73.5 -26.5q-1 2 -19 28q-4 7 -4 13q0 11 11 20q36 30 86 59.5t74 29.5z" />
<glyph unicode="&#xca;" horiz-adv-x="471" d="M67 24v461q0 82 -3 126q62 14 127 14h235q-7 -53 -32 -82q-15 -6 -99 -6h-88v-170h208q-5 -50 -21.5 -69t-45.5 -19h-141v-191q35 -6 81 -6q112 0 164 4l2 -2q-13 -59 -55 -85q-23 -5 -143 -5q-126 0 -174 10zM165 664h-1q-18 0 -36.5 12.5t-22.5 24.5q61 40 111 100 q8 9 20 12q19 4 44 4q51 -63 118 -117q-7 -10 -24 -23t-30 -13q-15 0 -27 6q-24 16 -66 54q-31 -29 -68 -53q-14 -7 -18 -7z" />
<glyph unicode="&#xcb;" horiz-adv-x="471" d="M67 24v461q0 82 -3 126q62 14 127 14h235q-7 -53 -32 -82q-15 -6 -99 -6h-88v-170h208q-5 -50 -21.5 -69t-45.5 -19h-141v-191q35 -6 81 -6q112 0 164 4l2 -2q-13 -59 -55 -85q-23 -5 -143 -5q-126 0 -174 10zM155 798h1q23 0 39 -18t16 -42q0 -30 -17 -47.5t-44 -17.5 q-24 0 -42 16t-18 45q0 28 17 46t48 18zM350 798h1q24 0 39.5 -17.5t15.5 -42.5q0 -30 -16.5 -47.5t-44.5 -17.5q-23 0 -40.5 16t-17.5 45q0 28 16.5 46t46.5 18z" />
<glyph unicode="&#xcc;" horiz-adv-x="274" d="M67 14v480q0 98 -3 127q53 8 121 8q14 0 18 -10.5t4 -44.5v-449q0 -63 3 -123q-27 -8 -119 -8q-13 0 -18.5 4t-5.5 16zM57 828h1q13 0 62.5 -35t81.5 -64q10 -10 10 -21q0 -8 -6 -17q-9 -15 -18 -26q-144 67 -178 80q-9 3 -9 12q0 4 2 9q9 24 23.5 43t30.5 19z" />
<glyph unicode="&#xcd;" horiz-adv-x="274" d="M67 14v480q0 98 -3 127q53 8 121 8q14 0 18 -10.5t4 -44.5v-449q0 -63 3 -123q-27 -8 -119 -8q-13 0 -18.5 4t-5.5 16zM230 814q17 -3 29 -20.5t16 -31.5t4 -18q0 -11 -15 -16q-39 -12 -108.5 -37.5t-73.5 -26.5q-2 2 -19 28q-4 7 -4 13q0 11 11 20q36 30 86 59.5 t74 29.5z" />
<glyph unicode="&#xce;" horiz-adv-x="274" d="M67 14v480q0 98 -3 127q53 8 121 8q14 0 18 -10.5t4 -44.5v-449q0 -63 3 -123q-27 -8 -119 -8q-13 0 -18.5 4t-5.5 16zM52 662h-1q-18 0 -36.5 12.5t-22.5 24.5q61 40 111 100q8 9 20 12q19 4 44 4q51 -63 118 -117q-7 -10 -24 -23t-30 -13q-15 0 -27 6q-24 16 -66 54 q-31 -29 -68 -53q-14 -7 -18 -7z" />
<glyph unicode="&#xcf;" horiz-adv-x="274" d="M67 14v480q0 98 -3 127q53 8 121 8q14 0 18 -10.5t4 -44.5v-449q0 -63 3 -123q-27 -8 -119 -8q-13 0 -18.5 4t-5.5 16zM44 798h1q23 0 39 -18t16 -42q0 -30 -17 -47.5t-44 -17.5q-24 0 -42 16t-18 45q0 28 17 46t48 18zM239 798h1q24 0 39.5 -17.5t15.5 -42.5 q0 -30 -16.5 -47.5t-44.5 -17.5q-23 0 -40.5 16t-17.5 45q0 28 16.5 46t46.5 18z" />
<glyph unicode="&#xd0;" horiz-adv-x="681" d="M82 611l121 15q60 5 98 5q85 0 149.5 -20.5t102 -51.5t60.5 -74.5t30.5 -83t7.5 -82.5q0 -155 -109 -249q-95 -80 -246 -80q-85 0 -212 20v273h-79q3 37 12 55.5t17.5 22t23.5 3.5h26v134q0 65 -2 113zM224 543v-179h159q-7 -53 -24.5 -67t-49.5 -14h-85v-203 q32 -7 73 -7q35 0 67.5 11t65.5 36.5t52.5 77t19.5 122.5q0 108 -57 168t-155 60q-38 0 -66 -5z" />
<glyph unicode="&#xd1;" horiz-adv-x="658" d="M67 596l-15 20v5q61 8 141 8q13 0 29 -18q95 -145 167 -266q82 -139 100 -180q-5 69 -5 150v281q0 17 4.5 22t17.5 6q50 5 89 5q-3 -65 -3 -184v-440q-57 -17 -110 -17q-17 0 -29 16q-13 19 -148 236q-59 96 -135 245q5 -95 5 -197v-264q0 -14 -4.5 -19t-18.5 -7 q-25 -4 -62 -4h-26q3 60 3 182v420zM298 805h1q31 0 59 -34q17 -22 25 -22q15 0 23 46q3 10 11 10q29 0 50 -14q-11 -128 -81 -128q-27 0 -63 38q-19 22 -29 22q-14 -2 -24 -46q-2 -10 -8 -10q-35 0 -54 8q9 130 90 130z" />
<glyph unicode="&#xd2;" horiz-adv-x="709" d="M355 640h1q154 0 238.5 -93.5t84.5 -228.5q0 -143 -85.5 -238t-237.5 -95q-67 0 -122.5 18.5t-92.5 50t-62 73.5t-36.5 87.5t-11.5 94.5q0 145 87.5 238t236.5 93zM347 557h-1q-71 0 -118 -60t-47 -176q0 -119 52 -186t131 -67t122.5 63.5t43.5 175.5t-49.5 181 t-133.5 69zM284 841h1q13 0 62.5 -35t81.5 -64q10 -10 10 -21q0 -8 -6 -17q-9 -15 -18 -26q-144 67 -178 80q-9 3 -9 12q0 4 2 9q9 24 23.5 43t30.5 19z" />
<glyph unicode="&#xd3;" horiz-adv-x="709" d="M355 640h1q154 0 238.5 -93.5t84.5 -228.5q0 -143 -85.5 -238t-237.5 -95q-67 0 -122.5 18.5t-92.5 50t-62 73.5t-36.5 87.5t-11.5 94.5q0 145 87.5 238t236.5 93zM347 557h-1q-71 0 -118 -60t-47 -176q0 -119 52 -186t131 -67t122.5 63.5t43.5 175.5t-49.5 181 t-133.5 69zM450 826q17 -3 29 -20.5t16 -31.5t4 -18q0 -11 -15 -16q-39 -12 -108.5 -37.5t-73.5 -26.5q-2 2 -19 28q-4 7 -4 13q0 11 11 20q36 30 86 59.5t74 29.5z" />
<glyph unicode="&#xd4;" horiz-adv-x="709" d="M355 640h1q154 0 238.5 -93.5t84.5 -228.5q0 -143 -85.5 -238t-237.5 -95q-67 0 -122.5 18.5t-92.5 50t-62 73.5t-36.5 87.5t-11.5 94.5q0 145 87.5 238t236.5 93zM347 557h-1q-71 0 -118 -60t-47 -176q0 -119 52 -186t131 -67t122.5 63.5t43.5 175.5t-49.5 181 t-133.5 69zM270 681h-1q-18 0 -36.5 12.5t-22.5 24.5q61 40 111 100q8 9 20 12q19 4 44 4q51 -63 118 -117q-7 -10 -24 -23t-30 -13q-15 0 -27 6q-24 17 -66 54q-31 -29 -68 -53q-14 -7 -18 -7z" />
<glyph unicode="&#xd5;" horiz-adv-x="709" d="M355 640h1q154 0 238.5 -93.5t84.5 -228.5q0 -143 -85.5 -238t-237.5 -95q-67 0 -122.5 18.5t-92.5 50t-62 73.5t-36.5 87.5t-11.5 94.5q0 145 87.5 238t236.5 93zM347 557h-1q-71 0 -118 -60t-47 -176q0 -119 52 -186t131 -67t122.5 63.5t43.5 175.5t-49.5 181 t-133.5 69zM315 821h1q31 0 59 -34q17 -22 25 -22q15 0 23 46q3 10 11 10q29 0 50 -14q-11 -128 -81 -128q-27 0 -63 38q-19 22 -29 22q-14 -2 -24 -46q-2 -10 -8 -10q-35 0 -54 8q9 130 90 130z" />
<glyph unicode="&#xd6;" horiz-adv-x="709" d="M355 640h1q154 0 238.5 -93.5t84.5 -228.5q0 -143 -85.5 -238t-237.5 -95q-67 0 -122.5 18.5t-92.5 50t-62 73.5t-36.5 87.5t-11.5 94.5q0 145 87.5 238t236.5 93zM347 557h-1q-71 0 -118 -60t-47 -176q0 -119 52 -186t131 -67t122.5 63.5t43.5 175.5t-49.5 181 t-133.5 69zM262 813h1q23 0 39 -18t16 -42q0 -30 -17 -47.5t-44 -17.5q-24 0 -42 16t-18 45q0 28 17 46t48 18zM457 813h1q24 0 39.5 -17.5t15.5 -42.5q0 -30 -16.5 -47.5t-44.5 -17.5q-23 0 -40.5 16t-17.5 45q0 28 16.5 46t46.5 18z" />
<glyph unicode="&#xd7;" horiz-adv-x="576" d="M506 396l-154 -156l138 -137q14 -13 14 -26q0 -8 -6 -17q-17 -28 -57 -44l-153 159l-152 -159q-32 6 -56 42q-7 10 -7 19q0 11 10 21l141 142l-140 140q-10 9 -10 20q0 9 6 19q24 34 56 43l152 -156l136 140q10 11 21 11q8 0 17 -5q16 -10 30 -29t14 -27z" />
<glyph unicode="&#xd8;" horiz-adv-x="721" d="M643 616l-49 -64q97 -86 97 -234q0 -144 -85 -238.5t-245 -94.5q-108 0 -172 41l-56 -73q-10 -12 -19 -12t-17 11q-23 28 -26 41l60 76q-52 46 -76 110t-24 128q0 148 93 240.5t239 92.5q103 0 173 -44l40 53q11 15 18 17h4q6 0 13 -5q27 -21 32 -45zM207 169l266 344 q-42 44 -120 44q-70 0 -126 -62.5t-56 -182.5q0 -92 36 -143zM518 455l-263 -343q44 -44 110 -44q85 0 135.5 63t50.5 179q0 93 -33 145z" />
<glyph unicode="&#xd9;" horiz-adv-x="657" d="M202 570v-277q0 -121 38.5 -165.5t100.5 -44.5q31 0 53.5 8.5t43 30.5t31 66t10.5 110v301q0 14 5 19t17 7q40 4 97 4q-3 -60 -3 -182v-144q0 -79 -16.5 -138t-42 -92.5t-63 -54t-72 -27t-76.5 -6.5q-133 0 -198 73t-65 226v208q0 98 -3 129q53 8 121 8q14 0 18 -11 t4 -48zM251 820h1q13 0 62.5 -35t81.5 -64q10 -10 10 -21q0 -8 -6 -17q-9 -15 -18 -26q-144 67 -178 80q-9 3 -9 12q0 4 2 9q9 24 23.5 43t30.5 19z" />
<glyph unicode="&#xda;" horiz-adv-x="657" d="M202 570v-277q0 -121 38.5 -165.5t100.5 -44.5q31 0 53.5 8.5t43 30.5t31 66t10.5 110v301q0 14 5 19t17 7q40 4 97 4q-3 -60 -3 -182v-144q0 -79 -16.5 -138t-42 -92.5t-63 -54t-72 -27t-76.5 -6.5q-133 0 -198 73t-65 226v208q0 98 -3 129q53 8 121 8q14 0 18 -11 t4 -48zM417 806q17 -3 29 -20.5t16 -31.5t4 -18q0 -11 -15 -16q-39 -12 -108.5 -37.5t-73.5 -26.5q-1 2 -19 28q-4 7 -4 13q0 11 11 20q36 30 86 59.5t74 29.5z" />
<glyph unicode="&#xdb;" horiz-adv-x="657" d="M202 570v-277q0 -121 38.5 -165.5t100.5 -44.5q31 0 53.5 8.5t43 30.5t31 66t10.5 110v301q0 14 5 19t17 7q40 4 97 4q-3 -60 -3 -182v-144q0 -79 -16.5 -138t-42 -92.5t-63 -54t-72 -27t-76.5 -6.5q-133 0 -198 73t-65 226v208q0 98 -3 129q53 8 121 8q14 0 18 -11 t4 -48zM244 673h-1q-18 0 -36.5 12.5t-22.5 24.5q61 40 111 100q8 9 20 12q19 4 44 4q51 -63 118 -117q-7 -10 -24 -23t-30 -13q-15 0 -27 6q-24 17 -66 54q-31 -29 -68 -53q-14 -7 -18 -7z" />
<glyph unicode="&#xdc;" horiz-adv-x="657" d="M202 570v-277q0 -121 38.5 -165.5t100.5 -44.5q31 0 53.5 8.5t43 30.5t31 66t10.5 110v301q0 14 5 19t17 7q40 4 97 4q-3 -60 -3 -182v-144q0 -79 -16.5 -138t-42 -92.5t-63 -54t-72 -27t-76.5 -6.5q-133 0 -198 73t-65 226v208q0 98 -3 129q53 8 121 8q14 0 18 -11 t4 -48zM240 806h1q23 0 39 -18t16 -42q0 -30 -17 -47.5t-44 -17.5q-24 0 -42 16t-18 45q0 28 17 46t48 18zM435 806h1q24 0 39.5 -17.5t15.5 -42.5q0 -30 -16.5 -47.5t-44.5 -17.5q-23 0 -40.5 16t-17.5 45q0 28 16.5 46t46.5 18z" />
<glyph unicode="&#xdd;" horiz-adv-x="566" d="M219 12v230q0 31 -8 46q-70 127 -198 319v3q72 19 123 19q16 0 25 -7.5t27 -39.5q19 -31 60 -108l58 -105q68 104 148 260q66 0 93 -11q12 -4 12 -16q0 -10 -10 -27q-11 -19 -53 -84l-83 -129l-43 -66q-11 -21 -11 -43v-131q0 -57 3 -120q-43 -8 -123 -8q-13 0 -16.5 3.5 t-3.5 14.5zM401 796q17 -3 29 -20.5t16 -31.5t4 -18q0 -11 -15 -16q-39 -12 -108.5 -37.5t-73.5 -26.5q-1 2 -19 28q-4 7 -4 13q0 11 11 20q36 30 86 59.5t74 29.5z" />
<glyph unicode="&#xde;" horiz-adv-x="511" d="M67 12v481q0 99 -3 128q53 8 121 8q14 0 18 -10.5t4 -45.5v-72q45 3 54 3q119 0 174 -56q49 -50 49 -132q0 -45 -14.5 -81t-36 -56.5t-47.5 -34.5t-47 -18.5t-38 -4.5q-25 0 -43 7q-16 6 -26 26t-9 44q5 0 12 -0.5t11 -0.5q37 0 65 28t28 80q0 115 -103 115q-15 0 -29 -2 v-293q0 -63 3 -123q-45 -8 -124 -8q-12 0 -15.5 3.5t-3.5 14.5z" />
<glyph unicode="&#xdf;" horiz-adv-x="564" d="M306 685h1q90 0 138 -49.5t48 -123.5q0 -28 -7 -45q-56 -28 -74.5 -50t-18.5 -49t28 -48q12 -8 34 -26t26 -21q59 -43 59 -111q0 -84 -58 -129t-132 -45q-42 0 -78 14q-19 21 -19 38q0 4 1 8q3 21 20 41q32 -15 74 -15q25 0 44 12.5t19 39.5q0 30 -37 57l-61 46 q-48 35 -48 94q0 82 102 144q7 15 7 39q0 43 -20 71.5t-56 28.5q-93 0 -93 -202q0 -276 5 -402q-62 -8 -129 -8q-14 0 -14 13q2 53 2 341q-59 0 -59 34q25 34 59 57q0 60 25.5 114t71.5 89q59 43 140 43z" />
<glyph unicode="&#xe0;" horiz-adv-x="458" d="M441 83v-3q0 -92 -93 -92q-60 0 -84 53q-51 -53 -113 -53q-51 0 -89 35.5t-38 92.5q0 29 13.5 52.5t32 37.5t48 26t51 17t50.5 11q28 6 44 8v16q0 32 -21 51.5t-55 19.5q-35 0 -94 -28q-6 -1 -12 -1q-20 0 -30 16q-11 18 -11 39v6q97 67 186 67q68 0 117.5 -43.5 t49.5 -125.5q0 -17 -2 -78.5t-2 -97.5q0 -10 10 -18t29 -8h13zM152 137v-1q0 -26 16.5 -41t42.5 -15q24 0 42 14q8 10 8 33v78q-109 -14 -109 -68zM192 682q15 -1 39.5 -52.5t34.5 -94.5q2 -5 2 -9q0 -9 -9 -16q-16 -10 -39 -14q-55 80 -112 135q-4 3 -4 8t8 13q37 30 77 30 h3z" />
<glyph unicode="&#xe1;" horiz-adv-x="458" d="M441 83v-3q0 -92 -93 -92q-60 0 -84 53q-51 -53 -113 -53q-51 0 -89 35.5t-38 92.5q0 29 13.5 52.5t32 37.5t48 26t51 17t50.5 11q28 6 44 8v16q0 32 -21 51.5t-55 19.5q-35 0 -94 -28q-6 -1 -12 -1q-20 0 -30 16q-11 18 -11 39v6q97 67 186 67q68 0 117.5 -43.5 t49.5 -125.5q0 -17 -2 -78.5t-2 -97.5q0 -10 10 -18t29 -8h13zM152 137v-1q0 -26 16.5 -41t42.5 -15q24 0 42 14q8 10 8 33v78q-109 -14 -109 -68zM250 681h1q38 0 75 -30q4 -4 4 -8q0 -6 -6 -13q-35 -39 -113 -135q-19 3 -39 15q-6 5 -6 14q0 6 3 14q50 143 81 143z" />
<glyph unicode="&#xe2;" horiz-adv-x="458" d="M441 83v-3q0 -92 -93 -92q-60 0 -84 53q-51 -53 -113 -53q-51 0 -89 35.5t-38 92.5q0 29 13.5 52.5t32 37.5t48 26t51 17t50.5 11q28 6 44 8v16q0 32 -21 51.5t-55 19.5q-35 0 -94 -28q-6 -1 -12 -1q-20 0 -30 16q-11 18 -11 39v6q97 67 186 67q68 0 117.5 -43.5 t49.5 -125.5q0 -17 -2 -78.5t-2 -97.5q0 -10 10 -18t29 -8h13zM152 137v-1q0 -26 16.5 -41t42.5 -15q24 0 42 14q8 10 8 33v78q-109 -14 -109 -68zM152 509h-1q-17 0 -60 13q72 102 93 140q7 13 21 16q21 4 45 4q50 -81 101 -154q-38 -19 -61 -19q-16 0 -21 9q-7 11 -24 34 t-26 37q-24 -39 -46 -64q-11 -16 -21 -16z" />
<glyph unicode="&#xe3;" horiz-adv-x="458" d="M441 83v-3q0 -92 -93 -92q-60 0 -84 53q-51 -53 -113 -53q-51 0 -89 35.5t-38 92.5q0 29 13.5 52.5t32 37.5t48 26t51 17t50.5 11q28 6 44 8v16q0 32 -21 51.5t-55 19.5q-35 0 -94 -28q-6 -1 -12 -1q-20 0 -30 16q-11 18 -11 39v6q97 67 186 67q68 0 117.5 -43.5 t49.5 -125.5q0 -17 -2 -78.5t-2 -97.5q0 -10 10 -18t29 -8h13zM152 137v-1q0 -26 16.5 -41t42.5 -15q24 0 42 14q8 10 8 33v78q-109 -14 -109 -68zM184 668h1q31 0 59 -36q16 -21 24 -21q15 0 23 46q4 10 11 10q8 0 26 -4.5t25 -9.5q-11 -129 -82 -129q-29 0 -63 39 q-19 22 -28 22q-14 -2 -25 -46q-2 -10 -8 -10q-35 0 -54 8q9 131 91 131z" />
<glyph unicode="&#xe4;" horiz-adv-x="458" d="M441 83v-3q0 -92 -93 -92q-60 0 -84 53q-51 -53 -113 -53q-51 0 -89 35.5t-38 92.5q0 29 13.5 52.5t32 37.5t48 26t51 17t50.5 11q28 6 44 8v16q0 32 -21 51.5t-55 19.5q-35 0 -94 -28q-6 -1 -12 -1q-20 0 -30 16q-11 18 -11 39v6q97 67 186 67q68 0 117.5 -43.5 t49.5 -125.5q0 -17 -2 -78.5t-2 -97.5q0 -10 10 -18t29 -8h13zM152 137v-1q0 -26 16.5 -41t42.5 -15q24 0 42 14q8 10 8 33v78q-109 -14 -109 -68zM125 656h1q24 0 41 -18.5t17 -43.5q0 -31 -17.5 -49t-46.5 -18q-25 0 -43 16t-18 46t17.5 48.5t48.5 18.5zM318 656h1 q26 0 42.5 -18.5t16.5 -43.5q0 -31 -17.5 -49t-46.5 -18q-24 0 -42.5 16.5t-18.5 45.5q0 30 17 48.5t48 18.5z" />
<glyph unicode="&#xe5;" horiz-adv-x="458" d="M441 83v-3q0 -92 -93 -92q-60 0 -84 53q-51 -53 -113 -53q-51 0 -89 35.5t-38 92.5q0 29 13.5 52.5t32 37.5t48 26t51 17t50.5 11q28 6 44 8v16q0 32 -21 51.5t-55 19.5q-35 0 -94 -28q-6 -1 -12 -1q-20 0 -30 16q-11 18 -11 39v6q97 67 186 67q68 0 117.5 -43.5 t49.5 -125.5q0 -17 -2 -78.5t-2 -97.5q0 -10 10 -18t29 -8h13zM152 137v-1q0 -26 16.5 -41t42.5 -15q24 0 42 14q8 10 8 33v78q-109 -14 -109 -68zM229 694h1q44 0 72 -28t28 -72q0 -42 -29 -70.5t-73 -28.5q-43 0 -73 26t-30 73q0 41 28.5 70.5t75.5 29.5zM227 640h-1 q-16 0 -26.5 -13.5t-10.5 -30.5q0 -24 11.5 -36t29.5 -12q36 2 36 45q0 47 -39 47z" />
<glyph unicode="&#xe6;" horiz-adv-x="670" d="M627 105l2 -2q1 -33 -23.5 -65t-39.5 -38q-36 -12 -83 -12q-129 2 -172 74q-71 -74 -159 -74q-53 0 -90.5 33.5t-37.5 90.5q0 115 192 153q10 2 53 8v19q0 25 -20 44t-54 19q-12 0 -23 -1.5t-22 -4.5t-16.5 -5t-18 -7.5t-15.5 -6.5q-11 -5 -21 -5q-15 0 -26 11 q-16 15 -16 43q0 6 1 13q90 62 186 62q81 0 122 -54q56 54 134 54q88 0 128.5 -53t40.5 -120q0 -22 -5 -34q-6 -19 -78 -38q-16 -4 -78 -7q-46 -2 -79 -2h-21q4 -56 40.5 -86t94.5 -30q54 0 104 21zM458 380h-1q-30 0 -49 -28t-19 -82q15 -1 36 -1q37 0 92 4q7 0 7 20 q0 36 -17.5 61.5t-48.5 25.5zM210 80h1q39 0 72 39q-16 38 -16 86q-63 -5 -89 -26t-26 -45q0 -25 17 -39.5t41 -14.5z" />
<glyph unicode="&#xe7;" horiz-adv-x="423" d="M169 -81l55 72q-91 8 -144.5 66t-53.5 151q0 104 70.5 175t181.5 71q40 0 71 -8.5t43.5 -16.5t18.5 -15q0 -40 -21 -58q-9 -8 -19 -8q-6 0 -13 3q-33 13 -68 13q-59 0 -92 -35.5t-33 -99.5q0 -72 39.5 -107.5t98.5 -35.5t103 18l3 -4q0 -24 -11 -49t-29 -39 q-26 -17 -73 -21l-28 -39q30 -9 48 -31t18 -50q0 -45 -42.5 -76t-96.5 -33q-13 4 -22 17.5t-9 23.5q0 11 10 13q63 15 63 43q0 16 -19 26q-15 8 -36 8q-6 0 -13 -1v27z" />
<glyph unicode="&#xe8;" horiz-adv-x="443" d="M399 106l2 -2q0 -31 -20 -62t-35 -37q-34 -17 -90 -17q-112 0 -171 58t-59 170q0 95 59.5 166.5t157.5 71.5q90 0 134 -52t44 -122q0 -19 -4 -33q-4 -20 -80 -41q-16 -5 -79 -6h-39q-36 0 -58 1q4 -60 42 -88t89 -28q57 0 107 21zM233 380h-1q-28 0 -48.5 -27.5 t-21.5 -78.5q26 -3 57 -3t67 3q10 0 10 21q0 85 -63 85zM199 682q15 -1 39.5 -52.5t34.5 -94.5q2 -5 2 -9q0 -9 -9 -16q-16 -10 -39 -14q-55 80 -112 135q-4 3 -4 8t8 13q37 30 77 30h3z" />
<glyph unicode="&#xe9;" horiz-adv-x="443" d="M399 106l2 -2q0 -31 -20 -62t-35 -37q-34 -17 -90 -17q-112 0 -171 58t-59 170q0 95 59.5 166.5t157.5 71.5q90 0 134 -52t44 -122q0 -19 -4 -33q-4 -20 -80 -41q-16 -5 -79 -6h-39q-36 0 -58 1q4 -60 42 -88t89 -28q57 0 107 21zM233 380h-1q-28 0 -48.5 -27.5 t-21.5 -78.5q26 -3 57 -3t67 3q10 0 10 21q0 85 -63 85zM270 681h1q38 0 75 -30q4 -4 4 -8q0 -6 -6 -13q-35 -39 -113 -135q-19 3 -39 15q-6 5 -6 14q0 6 3 14q50 143 81 143z" />
<glyph unicode="&#xea;" horiz-adv-x="443" d="M399 106l2 -2q0 -31 -20 -62t-35 -37q-34 -17 -90 -17q-112 0 -171 58t-59 170q0 95 59.5 166.5t157.5 71.5q90 0 134 -52t44 -122q0 -19 -4 -33q-4 -20 -80 -41q-16 -5 -79 -6h-39q-36 0 -58 1q4 -60 42 -88t89 -28q57 0 107 21zM233 380h-1q-28 0 -48.5 -27.5 t-21.5 -78.5q26 -3 57 -3t67 3q10 0 10 21q0 85 -63 85zM167 509h-1q-17 0 -60 13q72 102 93 140q7 13 21 16q21 4 45 4q50 -81 101 -154q-38 -19 -61 -19q-16 0 -21 9q-7 11 -24 34t-26 37q-24 -39 -46 -64q-11 -16 -21 -16z" />
<glyph unicode="&#xeb;" horiz-adv-x="443" d="M399 106l2 -2q0 -31 -20 -62t-35 -37q-34 -17 -90 -17q-112 0 -171 58t-59 170q0 95 59.5 166.5t157.5 71.5q90 0 134 -52t44 -122q0 -19 -4 -33q-4 -20 -80 -41q-16 -5 -79 -6h-39q-36 0 -58 1q4 -60 42 -88t89 -28q57 0 107 21zM233 380h-1q-28 0 -48.5 -27.5 t-21.5 -78.5q26 -3 57 -3t67 3q10 0 10 21q0 85 -63 85zM138 656h1q24 0 41 -18.5t17 -43.5q0 -31 -17.5 -49t-46.5 -18q-25 0 -43 16t-18 46t17.5 48.5t48.5 18.5zM331 656h1q26 0 42.5 -18.5t16.5 -43.5q0 -31 -17.5 -49t-46.5 -18q-24 0 -42.5 16.5t-18.5 45.5 q0 30 17 48.5t48 18.5z" />
<glyph unicode="&#xec;" horiz-adv-x="253" d="M195 384v-360q0 -13 -7 -18.5t-26 -7.5q-29 -4 -106 -4q3 123 3 158v170q0 73 -4 113q46 13 120 13q13 0 16.5 -10.5t3.5 -53.5zM94 682q15 -1 39.5 -52.5t34.5 -94.5q2 -5 2 -9q0 -9 -9 -16q-16 -10 -39 -14q-55 80 -112 135q-4 3 -4 8t8 13q37 30 77 30h3z" />
<glyph unicode="&#xed;" horiz-adv-x="253" d="M195 384v-360q0 -13 -7 -18.5t-26 -7.5q-29 -4 -106 -4q3 123 3 158v170q0 73 -4 113q46 13 120 13q13 0 16.5 -10.5t3.5 -53.5zM156 681h1q38 0 75 -30q4 -4 4 -8q0 -6 -6 -13q-35 -39 -113 -135q-19 3 -39 15q-6 5 -6 14q0 6 3 14q50 143 81 143z" />
<glyph unicode="&#xee;" horiz-adv-x="253" d="M195 384v-360q0 -13 -7 -18.5t-26 -7.5q-29 -4 -106 -4q3 123 3 158v170q0 73 -4 113q46 13 120 13q13 0 16.5 -10.5t3.5 -53.5zM58 509h-1q-17 0 -60 13q72 102 93 140q7 13 21 16q21 4 45 4q50 -81 101 -154q-38 -19 -61 -19q-16 0 -21 9q-7 11 -24 34t-26 37 q-24 -39 -46 -64q-11 -16 -21 -16z" />
<glyph unicode="&#xef;" horiz-adv-x="253" d="M195 384v-360q0 -13 -7 -18.5t-26 -7.5q-29 -4 -106 -4q3 123 3 158v170q0 73 -4 113q46 13 120 13q13 0 16.5 -10.5t3.5 -53.5zM37 656h1q24 0 41 -18.5t17 -43.5q0 -31 -17.5 -49t-46.5 -18q-25 0 -43 16t-18 46t17.5 48.5t48.5 18.5zM230 656h1q26 0 42.5 -18.5 t16.5 -43.5q0 -31 -17.5 -49t-46.5 -18q-24 0 -42.5 16.5t-18.5 45.5q0 30 17 48.5t48 18.5z" />
<glyph unicode="&#xf0;" horiz-adv-x="497" d="M419 609l-72 -35q59 -60 92 -143.5t33 -171.5q0 -138 -65 -204.5t-166 -66.5q-92 0 -153.5 55.5t-61.5 168.5q0 106 62.5 173t166.5 67q25 0 46 -8q-5 16 -22.5 41t-37.5 41l-145 -69q-15 -7 -19 -5t-4 11q0 42 11 55l100 50q-26 20 -102 47v2q8 14 16 24q11 24 20 31 t27 7q15 0 57 -15.5t91 -45.5l113 57q15 7 21 7h2q5 -2 5 -14q0 -44 -15 -59zM261 373h-1q-42 0 -67.5 -36.5t-25.5 -112.5q0 -75 25 -116t56 -41q49 0 68 47t19 139q0 65 -14 95q-23 25 -60 25z" />
<glyph unicode="&#xf1;" horiz-adv-x="535" d="M340 14v262q0 37 -19.5 58.5t-47.5 21.5q-34 0 -73 -27v-303q0 -14 -4 -19t-20 -7q-47 -6 -115 -6q3 90 3 181v164q0 21 -4 31.5t-16 16.5v7q7 25 29 42.5t50 17.5q55 0 70 -62q78 62 133 62q150 0 150 -180v-124q0 -90 3 -148q-92 -8 -116 -8q-23 0 -23 20zM223 668h1 q31 0 59 -36q16 -21 24 -21q15 0 23 46q4 10 11 10q8 0 26 -4.5t25 -9.5q-11 -129 -82 -129q-29 0 -63 39q-19 22 -28 22q-14 -2 -25 -46q-2 -10 -8 -10q-35 0 -54 8q9 131 91 131z" />
<glyph unicode="&#xf2;" horiz-adv-x="504" d="M257 454h1q107 0 163.5 -66t56.5 -161q0 -107 -64 -173t-169 -66q-95 0 -157 59.5t-62 170.5q0 103 65.5 169.5t165.5 66.5zM247 376h-1q-79 0 -79 -144q0 -82 26 -124t66 -42q78 0 78 149q0 73 -23 117t-67 44zM221 682q15 -1 39.5 -52.5t34.5 -94.5q2 -5 2 -9 q0 -9 -9 -16q-16 -10 -39 -14q-55 80 -112 135q-4 3 -4 8t8 13q37 30 77 30h3z" />
<glyph unicode="&#xf3;" horiz-adv-x="504" d="M257 454h1q107 0 163.5 -66t56.5 -161q0 -107 -64 -173t-169 -66q-95 0 -157 59.5t-62 170.5q0 103 65.5 169.5t165.5 66.5zM247 376h-1q-79 0 -79 -144q0 -82 26 -124t66 -42q78 0 78 149q0 73 -23 117t-67 44zM275 681h1q38 0 75 -30q4 -4 4 -8q0 -6 -6 -13 q-35 -39 -113 -135q-19 3 -39 15q-6 5 -6 14q0 6 3 14q50 143 81 143z" />
<glyph unicode="&#xf4;" horiz-adv-x="504" d="M257 454h1q107 0 163.5 -66t56.5 -161q0 -107 -64 -173t-169 -66q-95 0 -157 59.5t-62 170.5q0 103 65.5 169.5t165.5 66.5zM247 376h-1q-79 0 -79 -144q0 -82 26 -124t66 -42q78 0 78 149q0 73 -23 117t-67 44zM191 509h-1q-17 0 -60 13q72 102 93 140q7 13 21 16 q21 4 45 4q50 -81 101 -154q-38 -19 -61 -19q-16 0 -21 9q-7 11 -24 34t-26 37q-24 -39 -46 -64q-11 -16 -21 -16z" />
<glyph unicode="&#xf5;" horiz-adv-x="504" d="M257 454h1q107 0 163.5 -66t56.5 -161q0 -107 -64 -173t-169 -66q-95 0 -157 59.5t-62 170.5q0 103 65.5 169.5t165.5 66.5zM247 376h-1q-79 0 -79 -144q0 -82 26 -124t66 -42q78 0 78 149q0 73 -23 117t-67 44zM206 668h1q31 0 59 -36q16 -21 24 -21q15 0 23 46 q4 10 11 10q8 0 26 -4.5t25 -9.5q-11 -129 -82 -129q-29 0 -63 39q-19 22 -28 22q-14 -2 -25 -46q-2 -10 -8 -10q-35 0 -54 8q9 131 91 131z" />
<glyph unicode="&#xf6;" horiz-adv-x="504" d="M257 454h1q107 0 163.5 -66t56.5 -161q0 -107 -64 -173t-169 -66q-95 0 -157 59.5t-62 170.5q0 103 65.5 169.5t165.5 66.5zM247 376h-1q-79 0 -79 -144q0 -82 26 -124t66 -42q78 0 78 149q0 73 -23 117t-67 44zM153 656h1q24 0 41 -18.5t17 -43.5q0 -31 -17.5 -49 t-46.5 -18q-25 0 -43 16t-18 46t17.5 48.5t48.5 18.5zM346 656h1q26 0 42.5 -18.5t16.5 -43.5q0 -31 -17.5 -49t-46.5 -18q-24 0 -42.5 16.5t-18.5 45.5q0 30 17 48.5t48 18.5z" />
<glyph unicode="&#xf7;" horiz-adv-x="576" d="M287 354h-1q-23 0 -39.5 18t-16.5 42t17 42.5t41 18.5q25 0 42 -18t17 -43q0 -26 -17.5 -43t-42.5 -17zM481 203h-419q1 50 7.5 67.5t24.5 17.5h420q-1 -42 -7.5 -63.5t-25.5 -21.5zM286 137h1q24 0 41 -17.5t17 -42.5t-18 -43t-41 -18q-24 0 -41.5 18t-17.5 43 t17.5 42.5t41.5 17.5z" />
<glyph unicode="&#xf8;" horiz-adv-x="511" d="M439 430l-23 -33q68 -57 68 -174q0 -104 -63 -169.5t-163 -65.5q-73 0 -113 22q-18 -24 -28 -39q-8 -11 -15 -11q-5 0 -11 8q-19 24 -22 38q0 1 1 1t26 36q-70 57 -70 176q0 99 66.5 167t165.5 68q64 0 110 -23q17 24 18 27q11 16 17 18h1q6 0 13 -10q18 -19 22 -36z M171 144l138 207q-27 27 -56 27q-47 0 -71 -43.5t-24 -108.5q0 -49 13 -82zM340 297l-138 -206q27 -27 58 -27q47 0 69.5 41.5t22.5 105.5q0 48 -12 86z" />
<glyph unicode="&#xf9;" horiz-adv-x="529" d="M59 157v167q0 73 -4 111q54 13 120 13q13 0 16.5 -10.5t3.5 -53.5v-218q0 -44 22 -61.5t51 -17.5q35 0 62 21v292q0 23 4 30.5t19 10.5q71 7 116 7q0 -2 -1.5 -65.5t-1.5 -115.5v-153q0 -27 8.5 -38t29.5 -15v-5q-4 -27 -24.5 -47.5t-40.5 -20.5q-41 0 -61.5 15t-32.5 46 q-29 -27 -72 -46q-32 -15 -63 -15q-76 0 -113.5 46t-37.5 123zM223 682q15 -1 39.5 -52.5t34.5 -94.5q2 -5 2 -9q0 -9 -9 -16q-16 -10 -39 -14q-55 80 -112 135q-4 3 -4 8t8 13q37 30 77 30h3z" />
<glyph unicode="&#xfa;" horiz-adv-x="529" d="M59 157v167q0 73 -4 111q54 13 120 13q13 0 16.5 -10.5t3.5 -53.5v-218q0 -44 22 -61.5t51 -17.5q35 0 62 21v292q0 23 4 30.5t19 10.5q71 7 116 7q0 -2 -1.5 -65.5t-1.5 -115.5v-153q0 -27 8.5 -38t29.5 -15v-5q-4 -27 -24.5 -47.5t-40.5 -20.5q-41 0 -61.5 15t-32.5 46 q-29 -27 -72 -46q-32 -15 -63 -15q-76 0 -113.5 46t-37.5 123zM306 681h1q38 0 75 -30q4 -4 4 -8q0 -6 -6 -13q-35 -39 -113 -135q-19 3 -39 15q-6 5 -6 14q0 6 3 14q50 143 81 143z" />
<glyph unicode="&#xfb;" horiz-adv-x="529" d="M59 157v167q0 73 -4 111q54 13 120 13q13 0 16.5 -10.5t3.5 -53.5v-218q0 -44 22 -61.5t51 -17.5q35 0 62 21v292q0 23 4 30.5t19 10.5q71 7 116 7q0 -2 -1.5 -65.5t-1.5 -115.5v-153q0 -27 8.5 -38t29.5 -15v-5q-4 -27 -24.5 -47.5t-40.5 -20.5q-41 0 -61.5 15t-32.5 46 q-29 -27 -72 -46q-32 -15 -63 -15q-76 0 -113.5 46t-37.5 123zM194 510h-1q-17 0 -60 13q72 102 93 140q7 13 21 16q21 4 45 4q50 -81 101 -154q-38 -19 -61 -19q-16 0 -21 9q-7 11 -24 34t-26 37q-24 -39 -46 -64q-11 -16 -21 -16z" />
<glyph unicode="&#xfc;" horiz-adv-x="529" d="M59 157v167q0 73 -4 111q54 13 120 13q13 0 16.5 -10.5t3.5 -53.5v-218q0 -44 22 -61.5t51 -17.5q35 0 62 21v292q0 23 4 30.5t19 10.5q71 7 116 7q0 -2 -1.5 -65.5t-1.5 -115.5v-153q0 -27 8.5 -38t29.5 -15v-5q-4 -27 -24.5 -47.5t-40.5 -20.5q-41 0 -61.5 15t-32.5 46 q-29 -27 -72 -46q-32 -15 -63 -15q-76 0 -113.5 46t-37.5 123zM166 656h1q24 0 41 -18.5t17 -43.5q0 -31 -17.5 -49t-46.5 -18q-25 0 -43 16t-18 46t17.5 48.5t48.5 18.5zM359 656h1q26 0 42.5 -18.5t16.5 -43.5q0 -31 -17.5 -49t-46.5 -18q-24 0 -42.5 16.5t-18.5 45.5 q0 30 17 48.5t48 18.5z" />
<glyph unicode="&#xfd;" horiz-adv-x="440" d="M50 -160v3q25 24 63.5 77t63.5 101q-10 17 -23 46q-103 272 -145 358q64 29 115 29q10 0 16.5 -5t9 -10t7.5 -17q51 -132 91 -265q23 61 49.5 153.5t35.5 143.5q31 -2 73 -12q20 -4 25 -15q2 -5 2 -12q0 -8 -3 -18q-47 -199 -128 -361q-51 -103 -98 -170t-66 -67 q-27 0 -51.5 13t-36.5 28zM267 681h1q38 0 75 -30q4 -4 4 -8q0 -6 -6 -13q-35 -39 -113 -135q-19 3 -39 15q-6 5 -6 14q0 6 3 14q50 143 81 143z" />
<glyph unicode="&#xfe;" horiz-adv-x="523" d="M194 1v-182q0 -14 -4 -19.5t-20 -7.5q-47 -6 -115 -6q3 74 3 161v384v224q0 64 -4 104q13 6 56.5 13t63.5 7q12 0 15.5 -10.5t3.5 -54.5v-210q69 50 125 50q83 0 131.5 -59.5t48.5 -148.5q0 -109 -67 -183.5t-174 -74.5q-31 0 -63 13zM194 332v-253q24 -8 48 -8 q54 0 84.5 44t30.5 114q0 53 -27.5 89t-71.5 36q-37 0 -64 -22z" />
<glyph unicode="&#xff;" horiz-adv-x="440" d="M50 -160v3q25 24 63.5 77t63.5 101q-10 17 -23 46q-103 272 -145 358q64 29 115 29q10 0 16.5 -5t9 -10t7.5 -17q51 -132 91 -265q23 61 49.5 153.5t35.5 143.5q31 -2 73 -12q20 -4 25 -15q2 -5 2 -12q0 -8 -3 -18q-47 -199 -128 -361q-51 -103 -98 -170t-66 -67 q-27 0 -51.5 13t-36.5 28zM133 656h1q24 0 41 -18.5t17 -43.5q0 -31 -17.5 -49t-46.5 -18q-25 0 -43 16t-18 46t17.5 48.5t48.5 18.5zM326 656h1q26 0 42.5 -18.5t16.5 -43.5q0 -31 -17.5 -49t-46.5 -18q-24 0 -42.5 16.5t-18.5 45.5q0 30 17 48.5t48 18.5z" />
<glyph unicode="&#x152;" horiz-adv-x="964" d="M705 365h202q-12 -58 -28 -73t-46 -15h-128v-189q35 -6 86 -6q102 0 154 4l2 -2q-12 -57 -59 -85q-23 -5 -129 -5q-125 0 -173 10l-15 20v49q-33 -42 -89.5 -65t-122.5 -23q-85 0 -151 28.5t-103 75.5t-55.5 100t-18.5 110q0 149 92 245t239 96q133 0 209 -85v57 q45 11 122 13h225q-7 -49 -35 -82q-16 -6 -89 -6h-89v-172zM180 317v-1q0 -109 52.5 -177.5t143.5 -68.5q87 0 143 63t56 179q0 121 -59 182t-143 61q-87 0 -140 -66t-53 -172z" />
<glyph unicode="&#x153;" horiz-adv-x="753" d="M708 100l1 -2q1 -32 -23 -62t-41 -36q-30 -12 -81 -12q-46 0 -92 15t-73 47q-54 -62 -151 -62q-94 0 -158 57.5t-64 173.5q0 101 66.5 168t166.5 67q98 0 151 -67q56 67 145 67q88 0 130.5 -51.5t44.5 -122.5q0 -27 -2 -34q-4 -20 -80 -37q-38 -10 -183 -10 q3 -54 43 -85.5t96 -31.5q50 0 104 18zM540 380h-1q-27 0 -48 -28t-25 -81q20 -2 45 -2q37 0 87 4q7 1 7 17q0 90 -65 90zM253 377h-1q-41 0 -63 -41t-22 -103q0 -87 27 -127t67 -40q82 0 82 154q0 66 -22.5 111.5t-67.5 45.5z" />
<glyph unicode="&#x178;" horiz-adv-x="566" d="M219 12v230q0 31 -8 46q-70 127 -198 319v3q72 19 123 19q16 0 25 -7.5t27 -39.5q19 -31 60 -108l58 -105q68 104 148 260q66 0 93 -11q12 -4 12 -16q0 -10 -10 -27q-11 -19 -53 -84l-83 -129l-43 -66q-11 -21 -11 -43v-131q0 -57 3 -120q-43 -8 -123 -8q-13 0 -16.5 3.5 t-3.5 14.5zM202 795h1q23 0 39 -18t16 -42q0 -30 -17 -47.5t-44 -17.5q-24 0 -42 16t-18 45q0 28 17 46t48 18zM397 795h1q24 0 39.5 -17.5t15.5 -42.5q0 -30 -16.5 -47.5t-44.5 -17.5q-23 0 -40.5 16t-17.5 45q0 28 16.5 46t46.5 18z" />
<glyph unicode="&#x2c6;" horiz-adv-x="400" d="M131 509h-1q-17 0 -60 13q72 102 93 140q7 13 21 16q21 4 45 4q50 -81 101 -154q-38 -19 -61 -19q-16 0 -21 9q-7 11 -24 34t-26 37q-24 -39 -46 -64q-11 -16 -21 -16z" />
<glyph unicode="&#x2dc;" horiz-adv-x="400" d="M161 668h1q31 0 59 -36q16 -21 24 -21q15 0 23 46q4 10 11 10q8 0 26 -4.5t25 -9.5q-11 -129 -82 -129q-29 0 -63 39q-19 22 -28 22q-14 -2 -25 -46q-2 -10 -8 -10q-35 0 -54 8q9 131 91 131z" />
<glyph unicode="&#x2000;" horiz-adv-x="430" />
<glyph unicode="&#x2001;" horiz-adv-x="860" />
<glyph unicode="&#x2002;" horiz-adv-x="430" />
<glyph unicode="&#x2003;" horiz-adv-x="860" />
<glyph unicode="&#x2004;" horiz-adv-x="286" />
<glyph unicode="&#x2005;" horiz-adv-x="215" />
<glyph unicode="&#x2006;" horiz-adv-x="143" />
<glyph unicode="&#x2007;" horiz-adv-x="143" />
<glyph unicode="&#x2008;" horiz-adv-x="107" />
<glyph unicode="&#x2009;" horiz-adv-x="172" />
<glyph unicode="&#x200a;" horiz-adv-x="47" />
<glyph unicode="&#x2010;" horiz-adv-x="311" d="M276 315l2 -3q-4 -36 -18 -67t-32 -35q-34 -14 -99 -28q-61 -13 -90 -13h-4l-3 4q5 40 17 66.5t21 28.5q158 33 206 47z" />
<glyph unicode="&#x2011;" horiz-adv-x="311" d="M276 315l2 -3q-4 -36 -18 -67t-32 -35q-34 -14 -99 -28q-61 -13 -90 -13h-4l-3 4q5 40 17 66.5t21 28.5q158 33 206 47z" />
<glyph unicode="&#x2013;" horiz-adv-x="538" d="M78 287h414l-5 -42q-5 -52 -24 -52h-417l7 43q8 51 25 51z" />
<glyph unicode="&#x2014;" horiz-adv-x="913" d="M78 287h789l-6 -44q-5 -34 -11 -42t-22 -8h-782l6 45q3 30 9.5 39.5t16.5 9.5z" />
<glyph unicode="&#x2018;" horiz-adv-x="228" d="M26 509v1q0 42 24.5 88.5t57.5 71.5q26 20 77 20h9q-53 -83 -53 -169q0 -24 6 -44q-61 -23 -84 -23q-17 0 -27 16t-10 39z" />
<glyph unicode="&#x2019;" horiz-adv-x="228" d="M202 630v-1q0 -41 -24.5 -88t-58.5 -72q-26 -20 -77 -20h-9q53 83 53 171q0 22 -6 42q55 23 84 23q17 0 27.5 -16t10.5 -39z" />
<glyph unicode="&#x201a;" horiz-adv-x="205" d="M134 160h1q18 0 29 -18t11 -46q0 -44 -31 -93t-70 -78q-29 -23 -85 -23h-9q69 88 69 187q0 20 -7 46q68 25 92 25z" />
<glyph unicode="&#x201c;" horiz-adv-x="398" d="M26 509v1q0 42 24.5 88.5t57.5 71.5q26 20 77 20h10q-54 -82 -54 -171q0 -22 6 -42q-61 -23 -84 -23q-17 0 -27 16t-10 39zM196 510v1q0 41 24.5 87.5t58.5 71.5q26 20 77 20h9q-53 -83 -53 -170q0 -23 6 -43q-61 -23 -84 -23q-17 0 -27.5 16t-10.5 40z" />
<glyph unicode="&#x201d;" horiz-adv-x="394" d="M202 630v-1q0 -41 -24.5 -88t-58.5 -72q-26 -20 -77 -20h-9q53 83 53 171q0 22 -6 42q55 23 84 23q17 0 27.5 -16t10.5 -39zM367 630v-1q0 -41 -24.5 -88t-57.5 -72q-26 -20 -77 -20h-9q53 83 53 171q0 22 -6 42q55 23 84 23q17 0 27 -16t10 -39z" />
<glyph unicode="&#x201e;" horiz-adv-x="377" d="M172 102v-1q0 -43 -26.5 -92t-62.5 -75q-27 -21 -80 -21h-10q58 89 58 178q0 24 -6 44q67 24 88 24q18 0 28.5 -16.5t10.5 -40.5zM347 102v-1q0 -43 -26.5 -91.5t-62.5 -75.5q-27 -21 -80 -21h-10q58 91 58 178q0 24 -6 44q67 24 89 24q17 0 27.5 -16.5t10.5 -40.5z" />
<glyph unicode="&#x2022;" horiz-adv-x="341" d="M175 356h1q51 0 84.5 -38t33.5 -87q0 -57 -35 -92.5t-92 -35.5q-44 0 -81.5 32t-37.5 91q0 58 34.5 94t92.5 36z" />
<glyph unicode="&#x2026;" horiz-adv-x="759" d="M126 146h1q31 0 50 -22.5t19 -54.5q0 -37 -20.5 -58.5t-55.5 -21.5q-28 0 -50 20t-22 57q0 34 21.5 57t56.5 23zM379 146h1q31 0 50 -22.5t19 -54.5q0 -37 -20.5 -58.5t-55.5 -21.5q-28 0 -50 20t-22 57q0 35 20.5 57.5t57.5 22.5zM632 146h1q31 0 50 -22.5t19 -54.5 q0 -37 -20.5 -58.5t-55.5 -21.5q-28 0 -50 20t-22 57q0 35 20.5 57.5t57.5 22.5z" />
<glyph unicode="&#x202f;" horiz-adv-x="172" />
<glyph unicode="&#x2039;" horiz-adv-x="414" d="M262 65v-1q0 -13 -17.5 -26.5t-32.5 -17.5q-63 105 -159 192q-10 13 -10 25q49 35 90 82t89 116q14 -2 31.5 -15.5t18.5 -28.5q0 -20 -37.5 -77t-62.5 -87q20 -24 55 -83.5t35 -78.5z" />
<glyph unicode="&#x203a;" horiz-adv-x="414" d="M154 390v1q0 12 18 26t32 17q59 -101 159 -191q9 -13 9 -27q-85 -60 -178 -196q-14 2 -32 15.5t-19 28.5q0 20 37.5 76.5t63.5 86.5q-21 26 -55.5 84.5t-34.5 78.5z" />
<glyph unicode="&#x205f;" horiz-adv-x="215" />
<glyph unicode="&#x20ac;" d="M456 93l4 -1q-6 -52 -26 -79q-32 -25 -105 -25q-106 0 -171.5 55.5t-84.5 162.5h-70q9 39 21 50.5t33 11.5h9q-1 13 -1 25.5t1 25.5h-43q13 62 42 62h11q23 101 91.5 161t173.5 60q71 0 112 -29q8 -11 8 -24q0 -6 -2 -13q-3 -24 -26 -39q-32 18 -81 18q-111 0 -141 -134 h203q-10 -41 -22 -51.5t-40 -10.5h-150q-1 -13 -1 -25.5t1 -25.5h183q-11 -41 -22.5 -51.5t-39.5 -10.5h-111q32 -131 152 -131q43 0 92 18z" />
<glyph unicode="&#x2122;" horiz-adv-x="429" d="M77 477v116h-48q-5 0 -5 6q0 19 10 29q4 -1 39 -1h111q0 -8 -6 -20t-12 -14h-38v-88q0 -9 0.5 -19.5t0.5 -11.5l-45 -2q-7 0 -7 5zM383 620l13 -90q3 -21 12 -56q-4 0 -14.5 -1.5t-19 -2t-12.5 -0.5q-6 0 -8 9q-1 9 -5 41l-9 66q-13 -40 -33 -110q-15 -2 -36 -2 q-15 48 -35 103l-6 -47q-6 -39 -9 -54q-1 -6 -5 -6q-10 0 -35 4q3 14 12 63l14 76l-3 10q12 5 57 5q7 0 12 -16l24 -63q19 54 24 72l1 3q14 4 56 4q3 0 5 -8z" />
</font>
</defs>
</svg>
